<?xml version="1.0" encoding="UTF-8"?>
<svg xmlns="http://www.w3.org/2000/svg" xmlns:xlink="http://www.w3.org/1999/xlink" width="1920" height="1080" viewBox="0 0 1920 1080">
<defs>
<g>
<g id="glyph-0-0">
<path d="M 6.78125 0.800781 C 7.265625 0.800781 7.507812 0.523438 7.507812 -0.015625 L 7.507812 -6.484375 L 0.824219 -6.484375 L 0.824219 0.824219 L 1.425781 0.824219 L 1.425781 -5.898438 L 6.90625 -5.898438 L 6.90625 -0.148438 C 6.90625 0.101562 6.800781 0.226562 6.589844 0.226562 L 5.507812 0.199219 L 5.675781 0.800781 Z M 2.035156 -4.941406 L 2.035156 -4.382812 L 6.308594 -4.382812 L 6.308594 -4.941406 Z M 2.5 -3.484375 L 2.5 -0.800781 L 5.839844 -0.800781 L 5.839844 -3.484375 Z M 5.257812 -1.332031 L 3.082031 -1.332031 L 3.082031 -2.941406 L 5.257812 -2.941406 Z "/>
</g>
<g id="glyph-0-1">
<path d="M 7.683594 -5.117188 L 6.074219 -5.117188 C 6.390625 -5.53125 6.691406 -6.03125 6.984375 -6.632812 L 6.375 -6.859375 C 6.109375 -6.234375 5.792969 -5.648438 5.425781 -5.117188 L 0.648438 -5.117188 L 0.648438 -3.25 L 1.234375 -3.25 L 1.234375 -4.542969 L 7.089844 -4.542969 L 7.089844 -3.25 L 7.683594 -3.25 Z M 1.925781 -3.832031 L 1.925781 -3.300781 L 5.558594 -3.300781 C 5.191406 -3.101562 4.667969 -2.851562 3.964844 -2.542969 L 3.964844 -1.851562 L 0.589844 -1.851562 L 0.589844 -1.285156 L 3.964844 -1.285156 L 3.964844 -0.0820312 C 3.964844 0.148438 3.859375 0.265625 3.65625 0.265625 C 3.300781 0.265625 2.964844 0.257812 2.667969 0.25 L 2.808594 0.800781 L 3.867188 0.800781 C 4.332031 0.800781 4.574219 0.574219 4.574219 0.125 L 4.574219 -1.285156 L 7.75 -1.285156 L 7.75 -1.851562 L 4.574219 -1.851562 L 4.574219 -2.273438 C 5.257812 -2.609375 5.867188 -2.949219 6.417969 -3.300781 L 6.417969 -3.832031 Z M 1.832031 -6.734375 L 1.292969 -6.464844 C 1.601562 -6.082031 1.890625 -5.648438 2.175781 -5.167969 L 2.691406 -5.425781 C 2.425781 -5.898438 2.132812 -6.332031 1.832031 -6.734375 Z M 3.851562 -6.890625 L 3.308594 -6.625 C 3.589844 -6.226562 3.859375 -5.765625 4.109375 -5.25 L 4.640625 -5.515625 C 4.390625 -6.015625 4.125 -6.476562 3.851562 -6.890625 Z "/>
</g>
<g id="glyph-0-2">
<path d="M 6.808594 0.765625 C 7.367188 0.765625 7.648438 0.484375 7.648438 -0.0742188 L 7.648438 -6.265625 L 5.03125 -6.265625 L 5.03125 -5.691406 L 7.058594 -5.691406 L 7.058594 -0.242188 C 7.058594 0.0664062 6.933594 0.226562 6.683594 0.226562 L 5.867188 0.207031 L 6.015625 0.765625 Z M 3.851562 -6.808594 L 3.390625 -6.515625 C 3.765625 -6.03125 4.066406 -5.582031 4.28125 -5.175781 L 4.757812 -5.507812 C 4.542969 -5.882812 4.242188 -6.316406 3.851562 -6.808594 Z M 2.273438 -6.859375 C 1.859375 -5.550781 1.199219 -4.390625 0.285156 -3.375 L 0.476562 -2.765625 C 0.800781 -3.101562 1.101562 -3.457031 1.375 -3.824219 L 1.375 0.851562 L 1.976562 0.851562 L 1.976562 -4.734375 C 2.316406 -5.324219 2.601562 -5.949219 2.816406 -6.609375 Z M 3 -5.390625 L 3 0.824219 L 3.582031 0.824219 L 3.582031 -5.390625 Z "/>
</g>
<g id="glyph-0-3">
<path d="M 1.773438 -6.898438 C 1.683594 -6.324219 1.582031 -5.765625 1.464844 -5.214844 L 0.457031 -5.214844 L 0.457031 -4.640625 L 1.339844 -4.640625 C 1.140625 -3.792969 0.917969 -3 0.660156 -2.265625 C 1.125 -1.925781 1.558594 -1.601562 1.941406 -1.292969 C 1.550781 -0.640625 1.042969 -0.0898438 0.410156 0.367188 L 0.816406 0.867188 C 1.457031 0.375 1.992188 -0.214844 2.410156 -0.910156 C 2.824219 -0.558594 3.183594 -0.242188 3.464844 0.0585938 L 3.875 -0.417969 C 3.566406 -0.714844 3.175781 -1.058594 2.691406 -1.433594 C 3.160156 -2.410156 3.433594 -3.558594 3.507812 -4.875 L 3.507812 -5.214844 L 2.066406 -5.214844 C 2.167969 -5.714844 2.265625 -6.265625 2.367188 -6.851562 Z M 2.207031 -1.800781 C 1.933594 -2 1.632812 -2.214844 1.316406 -2.441406 C 1.535156 -3.023438 1.742188 -3.757812 1.941406 -4.640625 L 2.917969 -4.640625 C 2.839844 -3.574219 2.609375 -2.625 2.207031 -1.800781 Z M 3.792969 -3.308594 L 3.792969 -2.726562 L 5.675781 -2.726562 L 5.675781 -0.242188 C 5.675781 0.0429688 5.574219 0.183594 5.382812 0.183594 C 4.984375 0.183594 4.609375 0.175781 4.265625 0.175781 L 4.425781 0.742188 L 5.625 0.742188 C 6.058594 0.742188 6.28125 0.476562 6.28125 -0.0585938 L 6.28125 -2.726562 L 7.984375 -2.726562 L 7.984375 -3.308594 L 6.28125 -3.308594 L 6.28125 -4.175781 C 6.78125 -4.675781 7.242188 -5.214844 7.640625 -5.792969 L 7.640625 -6.375 L 4.03125 -6.375 L 4.03125 -5.792969 L 6.957031 -5.792969 C 6.550781 -5.226562 6.125 -4.75 5.675781 -4.359375 L 5.675781 -3.308594 Z "/>
</g>
</g>
</defs>
<g fill="rgb(12.156863%, 16.078431%, 21.568627%)" fill-opacity="1">
<use xlink:href="#glyph-0-0" x="30" y="28.833008"/>
<use xlink:href="#glyph-0-1" x="38" y="28.833008"/>
<use xlink:href="#glyph-0-2" x="46" y="28.833008"/>
<use xlink:href="#glyph-0-3" x="54" y="28.833008"/>
</g>
</svg>
