<?xml version="1.0" encoding="UTF-8"?>
<svg xmlns="http://www.w3.org/2000/svg" xmlns:xlink="http://www.w3.org/1999/xlink" width="1920" height="1080" viewBox="0 0 1920 1080">
<defs>
<g>
<g id="glyph-0-0">
<path d="M 3.703125 -7.480469 L 3.703125 -2.8125 L 6.796875 -2.8125 L 6.796875 0.0117188 C 6.796875 0.257812 6.648438 0.378906 6.378906 0.378906 C 6.027344 0.378906 5.660156 0.355469 5.269531 0.316406 L 5.453125 1.1875 L 6.6875 1.1875 C 7.347656 1.1875 7.675781 0.855469 7.675781 0.21875 L 7.675781 -2.8125 L 10.511719 -2.8125 L 10.511719 -7.480469 L 7.113281 -7.480469 C 7.234375 -7.847656 7.332031 -8.226562 7.40625 -8.617188 L 11.402344 -8.617188 L 11.402344 -9.484375 L 1.453125 -9.484375 L 1.453125 -4.707031 C 1.429688 -2.445312 1.113281 -0.671875 0.5 0.609375 L 1.160156 1.199219 C 1.90625 -0.28125 2.296875 -2.25 2.347656 -4.707031 L 2.347656 -8.617188 L 6.527344 -8.617188 C 6.464844 -8.226562 6.378906 -7.847656 6.257812 -7.480469 Z M 9.65625 -3.605469 L 4.558594 -3.605469 L 4.558594 -4.777344 L 9.65625 -4.777344 Z M 4.558594 -5.535156 L 4.558594 -6.671875 L 9.65625 -6.671875 L 9.65625 -5.535156 Z M 4.582031 -2.238281 C 4.046875 -1.246094 3.410156 -0.390625 2.664062 0.316406 L 3.398438 0.832031 C 4.144531 0.0742188 4.792969 -0.820312 5.355469 -1.871094 Z M 9.546875 -2.25 L 8.835938 -1.808594 C 9.644531 -0.832031 10.292969 0.0742188 10.757812 0.878906 L 11.488281 0.378906 C 11.035156 -0.367188 10.390625 -1.246094 9.546875 -2.25 Z "/>
</g>
<g id="glyph-0-1">
<path d="M 8.984375 0.195312 C 6.476562 0.195312 4.875 0.0859375 4.167969 -0.132812 C 4.117188 -0.160156 4.058594 -0.183594 3.984375 -0.207031 L 3.984375 -1.539062 L 5.660156 -1.539062 L 5.660156 -2.324219 L 3.984375 -2.324219 L 3.984375 -3.617188 L 5.964844 -3.617188 L 5.964844 -4.425781 L 0.78125 -4.425781 L 0.78125 -3.617188 L 3.203125 -3.617188 L 3.203125 -0.648438 C 2.824219 -0.929688 2.46875 -1.320312 2.152344 -1.820312 C 2.210938 -2.1875 2.25 -2.566406 2.273438 -2.980469 L 1.492188 -3.082031 C 1.429688 -1.6875 1.074219 -0.441406 0.414062 0.671875 L 1.050781 1.234375 C 1.441406 0.574219 1.746094 -0.148438 1.96875 -0.929688 C 2.46875 -0.21875 3.042969 0.28125 3.691406 0.550781 C 4.425781 0.867188 6.246094 1.027344 9.179688 1.027344 L 11.585938 1.027344 L 11.734375 0.148438 C 11.121094 0.171875 10.207031 0.195312 8.984375 0.195312 Z M 1.332031 -9.507812 L 1.332031 -5.242188 L 5.5 -5.242188 L 5.5 -9.507812 Z M 4.644531 -5.976562 L 2.1875 -5.976562 L 2.1875 -7.015625 L 4.644531 -7.015625 Z M 2.1875 -7.699219 L 2.1875 -8.777344 L 4.644531 -8.777344 L 4.644531 -7.699219 Z M 6.136719 -9.496094 L 6.136719 -8.691406 L 8.421875 -8.691406 C 8.382812 -8.359375 8.335938 -8.03125 8.261719 -7.710938 L 6.515625 -7.710938 L 6.515625 -2.773438 L 7.296875 -2.773438 L 7.296875 -6.953125 L 10.253906 -6.953125 L 10.253906 -2.773438 L 11.074219 -2.773438 L 11.074219 -7.710938 L 9.058594 -7.710938 C 9.128906 -8.03125 9.179688 -8.347656 9.214844 -8.691406 L 11.414062 -8.691406 L 11.414062 -9.496094 Z M 9.65625 -2.738281 L 9.070312 -2.175781 C 9.863281 -1.539062 10.488281 -0.929688 10.9375 -0.367188 L 11.5625 -0.976562 C 11.050781 -1.566406 10.414062 -2.152344 9.65625 -2.738281 Z M 8.371094 -6.378906 L 8.371094 -4.65625 C 8.347656 -3.738281 8.164062 -2.996094 7.847656 -2.421875 C 7.492188 -1.871094 6.882812 -1.429688 6 -1.113281 L 6.476562 -0.355469 C 7.40625 -0.722656 8.089844 -1.222656 8.507812 -1.871094 C 8.921875 -2.566406 9.15625 -3.496094 9.179688 -4.65625 L 9.179688 -6.378906 Z "/>
</g>
<g id="glyph-0-2">
<path d="M 3.117188 -5.339844 L 3.117188 -4.558594 L 4.902344 -4.558594 L 4.902344 -3.289062 L 2.46875 -3.289062 C 2.542969 -3.949219 2.589844 -4.644531 2.589844 -5.378906 L 2.589844 -6.574219 L 4.902344 -6.574219 L 4.902344 -5.339844 Z M 2.347656 -2.480469 L 4.058594 -2.480469 L 4.058594 -0.171875 C 4.058594 0.121094 3.910156 0.328125 3.617188 0.441406 L 3.863281 1.210938 C 5.132812 0.953125 6.234375 0.660156 7.164062 0.316406 L 6.992188 -0.488281 C 6.40625 -0.230469 5.71875 0 4.925781 0.195312 L 4.925781 -2.480469 L 6.589844 -2.480469 C 7.515625 -0.539062 9.105469 0.722656 11.355469 1.285156 L 11.78125 0.453125 C 10.855469 0.257812 10.046875 -0.0625 9.339844 -0.511719 C 9.898438 -0.832031 10.402344 -1.269531 10.839844 -1.808594 L 10.230469 -2.40625 C 9.730469 -1.773438 9.203125 -1.320312 8.652344 -1.027344 C 8.1875 -1.441406 7.785156 -1.917969 7.46875 -2.480469 L 11.390625 -2.480469 L 11.390625 -3.289062 L 9.070312 -3.289062 L 9.070312 -4.558594 L 10.988281 -4.558594 L 10.988281 -5.339844 L 9.070312 -5.339844 L 9.070312 -6.574219 L 10.769531 -6.574219 L 10.769531 -9.507812 L 1.699219 -9.507812 L 1.699219 -5.378906 C 1.6875 -2.945312 1.257812 -0.953125 0.429688 0.585938 L 1.136719 1.222656 C 1.699219 0.121094 2.101562 -1.113281 2.347656 -2.480469 Z M 8.214844 -6.574219 L 8.214844 -5.339844 L 5.746094 -5.339844 L 5.746094 -6.574219 Z M 5.746094 -3.289062 L 5.746094 -4.558594 L 8.214844 -4.558594 L 8.214844 -3.289062 Z M 9.886719 -8.703125 L 9.886719 -7.371094 L 2.589844 -7.371094 L 2.589844 -8.703125 Z "/>
</g>
<g id="glyph-0-3">
<path d="M 5.464844 1.074219 C 6.222656 1.074219 6.601562 0.695312 6.601562 -0.0351562 L 6.601562 -5.339844 L 11.316406 -5.339844 L 11.316406 -6.210938 L 0.90625 -6.210938 L 0.90625 -5.339844 L 5.707031 -5.339844 L 5.707031 -0.257812 C 5.707031 0.0859375 5.523438 0.269531 5.15625 0.269531 C 4.695312 0.269531 4.21875 0.246094 3.703125 0.21875 L 3.886719 1.074219 Z M 2.785156 -3.996094 C 2.359375 -2.503906 1.675781 -1.148438 0.734375 0.0742188 L 1.503906 0.550781 C 2.433594 -0.671875 3.140625 -2.125 3.65625 -3.8125 Z M 9.242188 -4.117188 L 8.445312 -3.851562 C 9.226562 -2.601562 9.949219 -1.171875 10.609375 0.453125 L 11.414062 0.0859375 C 10.804688 -1.40625 10.070312 -2.800781 9.242188 -4.117188 Z M 2.027344 -9.3125 L 2.027344 -8.457031 L 10.230469 -8.457031 L 10.230469 -9.3125 Z "/>
</g>
</g>
</defs>
<g fill="rgb(12.156863%, 16.078431%, 21.568627%)" fill-opacity="1">
<use xlink:href="#glyph-0-0" x="30" y="32.956055"/>
<use xlink:href="#glyph-0-1" x="42" y="32.956055"/>
<use xlink:href="#glyph-0-2" x="54" y="32.956055"/>
<use xlink:href="#glyph-0-3" x="66" y="32.956055"/>
</g>
</svg>
