<?xml version="1.0" encoding="UTF-8"?>
<svg xmlns="http://www.w3.org/2000/svg" xmlns:xlink="http://www.w3.org/1999/xlink" width="1920" height="1080" viewBox="0 0 1920 1080">
<defs>
<g>
<g id="glyph-0-0">
<path d="M 6.828125 -6.042969 L 3.375 -6.042969 L 3.375 -1.742188 L 3.925781 -1.742188 L 3.925781 -5.507812 L 6.261719 -5.507812 L 6.261719 -1.742188 L 6.828125 -1.742188 Z M 6.65625 0.652344 C 6.90625 0.652344 7.09375 0.589844 7.21875 0.472656 C 7.347656 0.335938 7.441406 -0.0625 7.488281 -0.699219 L 6.96875 -0.863281 C 6.9375 -0.382812 6.890625 -0.0859375 6.828125 0.015625 C 6.773438 0.09375 6.679688 0.140625 6.554688 0.140625 L 6.011719 0.140625 C 5.847656 0.140625 5.769531 0.0546875 5.769531 -0.109375 L 5.769531 -1.773438 L 5.210938 -1.773438 L 5.210938 0.0078125 C 5.210938 0.433594 5.421875 0.652344 5.847656 0.652344 Z M 4.796875 -4.953125 L 4.796875 -3.054688 C 4.78125 -2.183594 4.613281 -1.476562 4.300781 -0.933594 C 3.964844 -0.421875 3.375 0 2.535156 0.328125 L 2.839844 0.800781 C 3.710938 0.472656 4.332031 0.015625 4.707031 -0.558594 C 5.09375 -1.183594 5.304688 -2.015625 5.335938 -3.054688 L 5.335938 -4.953125 Z M 0.488281 -3.476562 L 0.488281 -2.933594 L 1.382812 -2.933594 L 1.382812 -0.996094 C 1.042969 -0.902344 0.699219 -0.824219 0.351562 -0.761719 L 0.480469 -0.226562 C 1.359375 -0.433594 2.183594 -0.691406 2.957031 -1.003906 L 2.957031 -1.539062 C 2.628906 -1.40625 2.300781 -1.285156 1.960938 -1.167969 L 1.960938 -2.933594 L 2.832031 -2.933594 L 2.832031 -3.476562 L 1.960938 -3.476562 L 1.960938 -5.296875 L 2.941406 -5.296875 L 2.941406 -5.832031 L 0.390625 -5.832031 L 0.390625 -5.296875 L 1.382812 -5.296875 L 1.382812 -3.476562 Z "/>
</g>
<g id="glyph-0-1">
<path d="M 2.792969 -2.730469 L 2.792969 -2.183594 L 4.574219 -2.183594 L 4.574219 -0.0390625 L 2.472656 -0.0390625 L 2.472656 0.511719 L 7.347656 0.511719 L 7.347656 -0.0390625 L 5.140625 -0.0390625 L 5.140625 -2.183594 L 7 -2.183594 L 7 -2.730469 L 5.140625 -2.730469 L 5.140625 -4.175781 L 4.574219 -4.175781 L 4.574219 -2.730469 Z M 1.539062 -2.386719 L 1.539062 0.800781 L 2.09375 0.800781 L 2.09375 -3.023438 C 2.511719 -3.554688 2.878906 -4.128906 3.179688 -4.746094 L 7.34375 -4.746094 L 7.34375 -5.296875 L 3.429688 -5.296875 C 3.570312 -5.628906 3.6875 -5.980469 3.796875 -6.339844 L 3.210938 -6.410156 C 3.101562 -6.027344 2.964844 -5.652344 2.808594 -5.296875 L 0.542969 -5.296875 L 0.542969 -4.746094 L 2.542969 -4.746094 C 2 -3.710938 1.246094 -2.792969 0.273438 -1.992188 L 0.621094 -1.53125 C 0.949219 -1.804688 1.253906 -2.09375 1.539062 -2.386719 Z "/>
</g>
<g id="glyph-0-2">
<path d="M 1.292969 -3.539062 L 1.292969 0.777344 L 1.851562 0.777344 L 1.851562 -4.402344 C 2.160156 -4.945312 2.417969 -5.53125 2.621094 -6.144531 L 2.101562 -6.394531 C 1.71875 -5.164062 1.105469 -4.066406 0.265625 -3.117188 L 0.441406 -2.527344 C 0.746094 -2.847656 1.027344 -3.179688 1.292969 -3.539062 Z M 6.300781 -3.257812 L 5.800781 -3.09375 C 6.183594 -2.222656 6.53125 -1.214844 6.84375 -0.078125 L 7.335938 -0.296875 C 7.039062 -1.351562 6.695312 -2.339844 6.300781 -3.257812 Z M 3.625 -4.859375 L 6.570312 -4.859375 C 6.457031 -4.457031 6.308594 -4.097656 6.128906 -3.773438 L 6.664062 -3.617188 C 6.859375 -4.082031 7.015625 -4.558594 7.140625 -5.039062 L 7.140625 -5.40625 L 3.828125 -5.40625 C 3.917969 -5.675781 4.011719 -5.964844 4.089844 -6.269531 L 3.5625 -6.378906 C 3.296875 -5.328125 2.871094 -4.371094 2.277344 -3.507812 L 2.761719 -3.210938 C 3.085938 -3.710938 3.375 -4.253906 3.625 -4.859375 Z M 4.597656 0.722656 C 5.023438 0.722656 5.242188 0.503906 5.242188 0.0703125 L 5.242188 -4.207031 L 4.699219 -4.207031 L 4.699219 -0.0703125 C 4.699219 0.132812 4.597656 0.234375 4.402344 0.234375 C 4.105469 0.234375 3.789062 0.21875 3.460938 0.195312 L 3.578125 0.722656 Z M 3.429688 -3.195312 C 3.109375 -2.0625 2.738281 -1.128906 2.316406 -0.398438 L 2.839844 -0.210938 C 3.289062 -1.027344 3.65625 -1.976562 3.933594 -3.054688 Z "/>
</g>
<g id="glyph-0-3">
<path d="M 0.429688 -5.886719 L 0.429688 -5.34375 L 5.777344 -5.34375 L 5.777344 -0.195312 C 5.777344 0.0703125 5.644531 0.210938 5.398438 0.210938 C 5.007812 0.210938 4.597656 0.195312 4.167969 0.179688 L 4.292969 0.722656 L 5.59375 0.722656 C 6.089844 0.722656 6.339844 0.457031 6.339844 -0.0546875 L 6.339844 -5.34375 L 7.363281 -5.34375 L 7.363281 -5.886719 Z M 4.355469 -4.152344 L 1.328125 -4.152344 L 1.328125 -0.613281 L 1.875 -0.613281 L 1.875 -1.296875 L 4.355469 -1.296875 Z M 1.875 -1.8125 L 1.875 -3.648438 L 3.820312 -3.648438 L 3.820312 -1.8125 Z "/>
</g>
<g id="glyph-0-4">
<path d="M 2.933594 -5.507812 L 2.464844 -5.21875 C 3.148438 -4.417969 3.6875 -3.695312 4.082031 -3.039062 L 4.558594 -3.367188 C 4.183594 -3.972656 3.640625 -4.691406 2.933594 -5.507812 Z M 5.609375 -1.695312 C 6.199219 -0.878906 6.671875 -0.109375 7.039062 0.621094 L 7.464844 0.195312 C 7.03125 -0.613281 6.492188 -1.421875 5.855469 -2.230469 C 5.902344 -2.347656 5.941406 -2.464844 5.980469 -2.582031 C 6.308594 -3.609375 6.472656 -4.851562 6.472656 -6.332031 L 5.886719 -6.332031 C 5.878906 -4.828125 5.714844 -3.59375 5.390625 -2.621094 C 4.960938 -1.46875 4.082031 -0.519531 2.761719 0.242188 L 3.132812 0.699219 C 4.269531 0.046875 5.09375 -0.753906 5.609375 -1.695312 Z M 1.003906 -0.109375 C 1.914062 -0.441406 2.769531 -0.839844 3.5625 -1.296875 L 3.40625 -1.84375 C 2.808594 -1.484375 2.207031 -1.183594 1.601562 -0.933594 L 1.601562 -6.128906 L 1.027344 -6.128906 L 1.027344 -1.066406 C 1.027344 -0.886719 0.957031 -0.746094 0.816406 -0.636719 Z "/>
</g>
<g id="glyph-0-5">
<path d="M 1.65625 -3.640625 L 3.632812 -3.640625 L 3.632812 -2.277344 L 1.65625 -2.277344 Z M 1.625 -1.765625 L 3.632812 -1.765625 L 3.632812 0.511719 L 4.207031 0.511719 L 4.207031 -1.765625 L 6.324219 -1.765625 L 6.324219 -0.414062 C 6.324219 -0.0859375 6.175781 0.078125 5.894531 0.078125 C 5.628906 0.078125 5.34375 0.0625 5.03125 0.046875 L 5.179688 0.597656 L 6.074219 0.597656 C 6.617188 0.597656 6.890625 0.328125 6.890625 -0.21875 L 6.890625 -6.042969 L 1.097656 -6.042969 L 1.097656 -2.308594 C 1.082031 -1.246094 0.824219 -0.367188 0.328125 0.328125 L 0.753906 0.707031 C 1.253906 0.0546875 1.539062 -0.769531 1.625 -1.765625 Z M 6.324219 -2.277344 L 4.207031 -2.277344 L 4.207031 -3.640625 L 6.324219 -3.640625 Z M 6.324219 -4.160156 L 4.207031 -4.160156 L 4.207031 -5.5 L 6.324219 -5.5 Z M 3.632812 -5.5 L 3.632812 -4.160156 L 1.65625 -4.160156 L 1.65625 -5.5 Z "/>
</g>
<g id="glyph-0-6">
<path d="M 0.390625 -3.132812 L 0.390625 -2.574219 L 7.378906 -2.574219 L 7.378906 -3.132812 Z "/>
</g>
<g id="glyph-0-7">
<path d="M 1.703125 -3.695312 L 1.703125 -0.800781 L 4.789062 -0.800781 L 4.789062 -3.695312 Z M 4.246094 -1.320312 L 2.253906 -1.320312 L 2.253906 -3.179688 L 4.246094 -3.179688 Z M 2.140625 -6.371094 C 1.820312 -5.28125 1.214844 -4.363281 0.320312 -3.609375 L 0.667969 -3.148438 C 1.261719 -3.648438 1.742188 -4.222656 2.117188 -4.867188 L 6.316406 -4.867188 C 6.300781 -3.15625 6.292969 -2.070312 6.277344 -1.585938 C 6.246094 -0.785156 6.152344 -0.28125 6.003906 -0.0703125 C 5.847656 0.132812 5.621094 0.242188 5.3125 0.242188 C 5.046875 0.242188 4.78125 0.234375 4.527344 0.226562 L 4.683594 0.753906 C 4.976562 0.746094 5.226562 0.738281 5.4375 0.738281 C 5.925781 0.738281 6.269531 0.597656 6.457031 0.335938 C 6.632812 0.0625 6.742188 -0.449219 6.78125 -1.207031 C 6.8125 -1.648438 6.84375 -3.046875 6.875 -5.414062 L 2.386719 -5.414062 C 2.511719 -5.691406 2.621094 -5.988281 2.707031 -6.300781 Z "/>
</g>
<g id="glyph-0-8">
<path d="M 2.800781 -4.082031 L 2.800781 -3.539062 L 4.929688 -3.539062 L 4.929688 -2.285156 L 3.476562 -2.285156 L 3.476562 0.753906 L 4.027344 0.753906 L 4.027344 0.367188 L 6.417969 0.367188 L 6.417969 0.753906 L 6.976562 0.753906 L 6.976562 -2.285156 L 5.5 -2.285156 L 5.5 -3.539062 L 7.503906 -3.539062 L 7.503906 -4.082031 L 5.5 -4.082031 L 5.5 -5.382812 C 6.152344 -5.476562 6.734375 -5.617188 7.234375 -5.792969 L 6.960938 -6.269531 C 5.902344 -5.910156 4.566406 -5.730469 2.957031 -5.730469 L 3.117188 -5.226562 C 3.765625 -5.226562 4.371094 -5.257812 4.929688 -5.3125 L 4.929688 -4.082031 Z M 4.027344 -0.164062 L 4.027344 -1.78125 L 6.417969 -1.78125 L 6.417969 -0.164062 Z M 1.261719 -6.277344 L 0.871094 -5.894531 C 1.429688 -5.476562 1.882812 -5.070312 2.207031 -4.691406 L 2.589844 -5.078125 C 2.230469 -5.484375 1.789062 -5.878906 1.261719 -6.277344 Z M 0.328125 -3.972656 L 0.328125 -3.4375 L 1.46875 -3.4375 L 1.46875 -0.328125 C 1.46875 -0.210938 1.40625 -0.101562 1.296875 0 L 1.515625 0.496094 C 2.054688 0.148438 2.558594 -0.25 3.023438 -0.699219 L 2.878906 -1.292969 C 2.566406 -0.988281 2.269531 -0.722656 2.007812 -0.503906 L 2.007812 -3.972656 Z "/>
</g>
<g id="glyph-0-9">
<path d="M 4.835938 -2.714844 L 5.777344 -2.714844 C 5.59375 -1.890625 5.296875 -1.175781 4.898438 -0.566406 C 4.714844 -0.988281 4.464844 -1.484375 4.152344 -2.046875 L 3.773438 -1.804688 C 3.902344 -1.5625 4.027344 -1.320312 4.152344 -1.082031 C 3.828125 -0.847656 3.492188 -0.644531 3.15625 -0.480469 L 3.15625 -2.316406 L 4.480469 -2.316406 L 4.480469 -6.042969 L 2.667969 -6.042969 L 2.667969 -0.433594 C 2.667969 -0.328125 2.605469 -0.242188 2.496094 -0.1875 L 2.628906 0.28125 C 3.296875 -0.015625 3.875 -0.335938 4.347656 -0.660156 C 4.425781 -0.480469 4.503906 -0.304688 4.574219 -0.125 C 4.417969 0.0625 4.246094 0.242188 4.066406 0.414062 L 4.480469 0.769531 C 5.1875 0.101562 5.707031 -0.777344 6.042969 -1.875 L 6.042969 0.15625 C 6.042969 0.480469 6.246094 0.652344 6.65625 0.652344 L 6.867188 0.652344 C 7.132812 0.636719 7.296875 0.566406 7.371094 0.429688 C 7.449219 0.273438 7.488281 -0.125 7.488281 -0.777344 L 7.101562 -0.925781 C 7.101562 -0.519531 7.085938 -0.21875 7.0625 -0.03125 C 7.046875 0.125 6.976562 0.210938 6.851562 0.21875 L 6.664062 0.21875 C 6.554688 0.203125 6.507812 0.15625 6.507812 0.0703125 L 6.507812 -2.109375 L 6.113281 -2.109375 C 6.167969 -2.300781 6.214844 -2.503906 6.261719 -2.714844 L 7.234375 -2.714844 L 7.234375 -3.226562 L 6.355469 -3.226562 C 6.433594 -3.804688 6.480469 -4.425781 6.492188 -5.09375 L 6.492188 -5.539062 L 7.179688 -5.539062 L 7.179688 -6.035156 L 4.789062 -6.035156 L 4.789062 -5.539062 L 6.027344 -5.539062 L 6.027344 -5.09375 C 6.019531 -4.425781 5.972656 -3.804688 5.878906 -3.226562 L 5.320312 -3.226562 C 5.367188 -3.726562 5.421875 -4.316406 5.46875 -4.984375 L 5.015625 -5.03125 C 4.976562 -4.355469 4.914062 -3.585938 4.835938 -2.714844 Z M 1.773438 -3.117188 C 1.9375 -2.839844 2.125 -2.480469 2.332031 -2.046875 L 2.621094 -2.472656 C 2.339844 -2.933594 2.054688 -3.351562 1.773438 -3.734375 L 1.773438 -4.394531 L 2.363281 -4.394531 L 2.363281 -4.90625 L 1.773438 -4.90625 L 1.773438 -6.347656 L 1.269531 -6.347656 L 1.269531 -4.90625 L 0.429688 -4.90625 L 0.429688 -4.394531 L 1.269531 -4.394531 C 1.066406 -3.382812 0.730469 -2.472656 0.257812 -1.679688 L 0.488281 -1.105469 C 0.800781 -1.695312 1.066406 -2.355469 1.269531 -3.070312 L 1.269531 0.792969 L 1.773438 0.792969 Z M 3.15625 -3.957031 L 4.003906 -3.957031 L 4.003906 -2.792969 L 3.15625 -2.792969 Z M 4.003906 -4.433594 L 3.15625 -4.433594 L 3.15625 -5.578125 L 4.003906 -5.578125 Z "/>
</g>
<g id="glyph-0-10">
<path d="M 4.90625 -5.304688 L 4.90625 -4.113281 L 3.003906 -4.113281 L 3.003906 -3.570312 L 4.90625 -3.570312 L 4.90625 -2.347656 L 3.382812 -2.347656 L 3.382812 0.761719 L 3.925781 0.761719 L 3.925781 0.335938 L 6.484375 0.335938 L 6.484375 0.761719 L 7.039062 0.761719 L 7.039062 -2.347656 L 5.46875 -2.347656 L 5.46875 -3.570312 L 7.417969 -3.570312 L 7.417969 -4.113281 L 5.46875 -4.113281 L 5.46875 -5.398438 C 6.042969 -5.507812 6.601562 -5.644531 7.140625 -5.816406 L 6.867188 -6.285156 C 5.871094 -5.957031 4.628906 -5.738281 3.132812 -5.636719 L 3.304688 -5.140625 C 3.859375 -5.171875 4.394531 -5.226562 4.90625 -5.304688 Z M 3.925781 -0.1875 L 3.925781 -1.835938 L 6.484375 -1.835938 L 6.484375 -0.1875 Z M 1.34375 0.707031 C 1.796875 0.707031 2.023438 0.480469 2.023438 0.046875 L 2.023438 -2.207031 C 2.332031 -2.332031 2.636719 -2.457031 2.941406 -2.597656 L 2.941406 -3.15625 C 2.636719 -3.011719 2.332031 -2.871094 2.023438 -2.746094 L 2.023438 -4.324219 L 2.871094 -4.324219 L 2.871094 -4.859375 L 2.023438 -4.859375 L 2.023438 -6.339844 L 1.453125 -6.339844 L 1.453125 -4.859375 L 0.429688 -4.859375 L 0.429688 -4.324219 L 1.453125 -4.324219 L 1.453125 -2.535156 C 1.082031 -2.410156 0.699219 -2.308594 0.3125 -2.214844 L 0.449219 -1.6875 C 0.785156 -1.78125 1.121094 -1.890625 1.453125 -2 L 1.453125 -0.09375 C 1.453125 0.09375 1.351562 0.195312 1.152344 0.195312 C 0.917969 0.195312 0.675781 0.179688 0.421875 0.164062 L 0.535156 0.707031 Z "/>
</g>
<g id="glyph-0-11">
<path d="M 1.5625 -3.085938 L 3.476562 -3.085938 L 3.476562 -1.921875 L 1.5625 -1.921875 Z M 3.476562 -1.398438 L 3.476562 -0.359375 C 3.476562 0.320312 3.789062 0.660156 4.425781 0.660156 L 6.425781 0.660156 C 6.789062 0.660156 7.039062 0.589844 7.179688 0.457031 C 7.320312 0.320312 7.402344 -0.0859375 7.449219 -0.746094 L 6.921875 -0.925781 C 6.890625 -0.398438 6.835938 -0.09375 6.757812 0 C 6.664062 0.0859375 6.523438 0.132812 6.332031 0.132812 L 4.558594 0.132812 C 4.214844 0.132812 4.042969 -0.0625 4.042969 -0.441406 L 4.042969 -1.398438 L 6.5625 -1.398438 L 6.5625 -5.273438 L 4.042969 -5.273438 L 4.042969 -6.339844 L 3.476562 -6.339844 L 3.476562 -5.273438 L 1.003906 -5.273438 L 1.003906 -0.738281 L 1.5625 -0.738281 L 1.5625 -1.398438 Z M 4.042969 -1.921875 L 4.042969 -3.085938 L 6.011719 -3.085938 L 6.011719 -1.921875 Z M 6.011719 -3.601562 L 4.042969 -3.601562 L 4.042969 -4.746094 L 6.011719 -4.746094 Z M 3.476562 -4.746094 L 3.476562 -3.601562 L 1.5625 -3.601562 L 1.5625 -4.746094 Z "/>
</g>
<g id="glyph-0-12">
<path d="M 4.621094 -2.175781 L 5.539062 -2.175781 L 5.539062 -1.230469 L 3.84375 -1.230469 L 3.84375 -0.722656 L 5.539062 -0.722656 L 5.539062 0.800781 L 6.082031 0.800781 L 6.082031 -0.722656 L 7.402344 -0.722656 L 7.402344 -1.230469 L 6.082031 -1.230469 L 6.082031 -2.175781 L 7.242188 -2.175781 L 7.242188 -2.683594 L 6.082031 -2.683594 L 6.082031 -3.40625 L 5.539062 -3.40625 L 5.539062 -2.683594 L 4.820312 -2.683594 C 4.867188 -2.863281 4.914062 -3.054688 4.960938 -3.265625 L 4.496094 -3.351562 C 4.378906 -2.730469 4.152344 -2.238281 3.8125 -1.867188 L 4.136719 -1.46875 C 4.324219 -1.671875 4.480469 -1.90625 4.621094 -2.175781 Z M 4.9375 -5.390625 C 4.882812 -5.132812 4.796875 -4.90625 4.683594 -4.707031 C 4.511719 -4.425781 4.246094 -4.175781 3.894531 -3.972656 L 4.222656 -3.546875 C 4.621094 -3.8125 4.921875 -4.113281 5.125 -4.441406 C 5.273438 -4.714844 5.390625 -5.03125 5.46875 -5.390625 L 6.609375 -5.390625 C 6.59375 -4.828125 6.5625 -4.480469 6.515625 -4.347656 C 6.464844 -4.214844 6.332031 -4.144531 6.113281 -4.136719 C 5.933594 -4.144531 5.707031 -4.160156 5.445312 -4.175781 L 5.578125 -3.710938 C 5.824219 -3.695312 6.042969 -3.679688 6.230469 -3.679688 C 6.5625 -3.679688 6.796875 -3.789062 6.9375 -3.988281 C 7.078125 -4.199219 7.148438 -4.828125 7.148438 -5.886719 L 3.902344 -5.886719 L 3.902344 -5.390625 Z M 1.269531 -2.582031 L 1.976562 -2.582031 L 1.976562 -1.5625 L 1.261719 -1.5625 C 1.261719 -1.625 1.269531 -1.679688 1.269531 -1.742188 Z M 1.238281 -1.089844 L 1.976562 -1.089844 L 1.976562 0.667969 L 2.425781 0.667969 L 2.425781 -1.089844 L 3.148438 -1.089844 L 3.148438 -0.0078125 C 3.148438 0.179688 3.0625 0.28125 2.894531 0.28125 C 2.769531 0.28125 2.628906 0.265625 2.480469 0.25 L 2.613281 0.714844 L 3.054688 0.714844 C 3.429688 0.714844 3.625 0.527344 3.625 0.164062 L 3.625 -4.503906 L 2.691406 -4.503906 C 2.863281 -4.746094 3.039062 -5.039062 3.210938 -5.382812 L 3.210938 -5.769531 L 1.828125 -5.769531 C 1.890625 -5.925781 1.960938 -6.097656 2.023438 -6.269531 L 1.515625 -6.386719 C 1.214844 -5.578125 0.832031 -4.921875 0.367188 -4.425781 L 0.707031 -4.011719 C 0.730469 -4.042969 0.753906 -4.066406 0.785156 -4.097656 L 0.785156 -1.710938 C 0.777344 -0.824219 0.621094 -0.0859375 0.328125 0.488281 L 0.707031 0.839844 C 0.988281 0.328125 1.167969 -0.320312 1.238281 -1.089844 Z M 2.125 -4.503906 L 1.113281 -4.503906 C 1.285156 -4.753906 1.453125 -5.015625 1.609375 -5.3125 L 2.621094 -5.3125 C 2.449219 -5.007812 2.285156 -4.738281 2.125 -4.503906 Z M 3.148438 -1.5625 L 2.425781 -1.5625 L 2.425781 -2.582031 L 3.148438 -2.582031 Z M 3.148438 -3.046875 L 2.425781 -3.046875 L 2.425781 -4.019531 L 3.148438 -4.019531 Z M 1.976562 -4.019531 L 1.976562 -3.046875 L 1.269531 -3.046875 L 1.269531 -4.019531 Z "/>
</g>
<g id="glyph-0-13">
<path d="M 0.527344 -4.378906 L 0.527344 -3.835938 L 2.503906 -3.835938 C 2.101562 -2.386719 1.367188 -1.269531 0.304688 -0.480469 L 0.660156 -0.0234375 C 1.859375 -0.910156 2.652344 -2.214844 3.054688 -3.933594 L 3.054688 -4.378906 Z M 6.546875 -5.125 C 6.035156 -4.457031 5.46875 -3.859375 4.835938 -3.335938 C 4.605469 -3.773438 4.402344 -4.238281 4.238281 -4.738281 L 4.238281 -6.386719 L 3.664062 -6.386719 L 3.664062 -0.125 C 3.664062 0.109375 3.554688 0.234375 3.351562 0.234375 C 3.054688 0.234375 2.738281 0.21875 2.410156 0.195312 L 2.527344 0.746094 L 3.546875 0.746094 C 4.003906 0.746094 4.238281 0.496094 4.238281 0.015625 L 4.238281 -3.523438 C 4.8125 -2.167969 5.785156 -0.972656 7.140625 0.0703125 L 7.480469 -0.433594 C 6.5 -1.089844 5.699219 -1.90625 5.09375 -2.894531 C 5.753906 -3.40625 6.394531 -4.042969 7 -4.789062 Z "/>
</g>
<g id="glyph-0-14">
<path d="M 1.945312 -1.105469 C 1.664062 -1.105469 1.421875 -1.011719 1.230469 -0.824219 C 1.027344 -0.636719 0.933594 -0.40625 0.933594 -0.125 C 0.933594 0.15625 1.027344 0.390625 1.230469 0.574219 C 1.421875 0.753906 1.664062 0.847656 1.945312 0.847656 C 2.222656 0.847656 2.457031 0.753906 2.660156 0.566406 C 2.855469 0.382812 2.957031 0.148438 2.957031 -0.125 C 2.957031 -0.40625 2.855469 -0.636719 2.660156 -0.824219 C 2.457031 -1.011719 2.222656 -1.105469 1.945312 -1.105469 Z M 1.945312 -0.699219 C 2.101562 -0.699219 2.238281 -0.644531 2.355469 -0.527344 C 2.472656 -0.421875 2.535156 -0.289062 2.535156 -0.125 C 2.535156 0.03125 2.472656 0.164062 2.355469 0.273438 C 2.238281 0.382812 2.101562 0.441406 1.945312 0.441406 C 1.78125 0.441406 1.640625 0.382812 1.53125 0.273438 C 1.40625 0.164062 1.351562 0.03125 1.351562 -0.125 C 1.351562 -0.289062 1.40625 -0.421875 1.53125 -0.527344 C 1.640625 -0.644531 1.78125 -0.699219 1.945312 -0.699219 Z "/>
</g>
</g>
</defs>
<g fill="rgb(100%, 100%, 100%)" fill-opacity="1">
<use xlink:href="#glyph-0-0" x="30" y="28.244141"/>
<use xlink:href="#glyph-0-1" x="38" y="28.244141"/>
<use xlink:href="#glyph-0-2" x="46" y="28.244141"/>
<use xlink:href="#glyph-0-3" x="54" y="28.244141"/>
<use xlink:href="#glyph-0-4" x="62" y="28.244141"/>
<use xlink:href="#glyph-0-5" x="70" y="28.244141"/>
<use xlink:href="#glyph-0-6" x="78" y="28.244141"/>
<use xlink:href="#glyph-0-7" x="86" y="28.244141"/>
<use xlink:href="#glyph-0-8" x="94" y="28.244141"/>
<use xlink:href="#glyph-0-9" x="102" y="28.244141"/>
<use xlink:href="#glyph-0-10" x="110" y="28.244141"/>
<use xlink:href="#glyph-0-11" x="118" y="28.244141"/>
<use xlink:href="#glyph-0-12" x="126" y="28.244141"/>
<use xlink:href="#glyph-0-13" x="134" y="28.244141"/>
<use xlink:href="#glyph-0-14" x="142" y="28.244141"/>
</g>
</svg>
