<?xml version="1.0" encoding="UTF-8"?>
<svg xmlns="http://www.w3.org/2000/svg" xmlns:xlink="http://www.w3.org/1999/xlink" width="854" height="480" viewBox="0 0 854 480">
<defs>
<g>
<g id="glyph-0-0">
<path d="M 3.140625 -5.101562 L 3.140625 -4.566406 L 7.25 -4.566406 L 7.25 -5.101562 L 5.492188 -5.101562 C 5.382812 -5.570312 5.257812 -5.988281 5.125 -6.355469 L 4.558594 -6.261719 C 4.699219 -5.902344 4.828125 -5.523438 4.9375 -5.101562 Z M 2.941406 -0.09375 L 2.941406 0.449219 L 7.425781 0.449219 L 7.425781 -0.09375 L 5.902344 -0.09375 C 6.261719 -1.214844 6.5625 -2.488281 6.8125 -3.917969 L 6.277344 -4.058594 C 6.003906 -2.472656 5.691406 -1.152344 5.335938 -0.09375 Z M 4.035156 -3.972656 L 3.523438 -3.8125 C 3.78125 -2.738281 3.996094 -1.625 4.167969 -0.472656 L 4.691406 -0.605469 C 4.503906 -1.875 4.285156 -2.996094 4.035156 -3.972656 Z M 2.957031 -3.28125 C 2.660156 -3.117188 2.363281 -2.964844 2.0625 -2.824219 L 2.0625 -4.386719 L 2.925781 -4.386719 L 2.925781 -4.921875 L 2.0625 -4.921875 L 2.0625 -6.332031 L 1.492188 -6.332031 L 1.492188 -4.921875 L 0.429688 -4.921875 L 0.429688 -4.386719 L 1.492188 -4.386719 L 1.492188 -2.589844 C 1.113281 -2.449219 0.714844 -2.324219 0.3125 -2.222656 L 0.449219 -1.664062 C 0.800781 -1.773438 1.152344 -1.898438 1.492188 -2.03125 L 1.492188 -0.125 C 1.492188 0.09375 1.382812 0.203125 1.175781 0.203125 C 0.972656 0.203125 0.761719 0.1875 0.542969 0.171875 L 0.667969 0.714844 L 1.367188 0.714844 C 1.828125 0.714844 2.0625 0.480469 2.0625 0.015625 L 2.0625 -2.269531 C 2.363281 -2.410156 2.660156 -2.558594 2.957031 -2.714844 Z "/>
</g>
<g id="glyph-0-1">
<path d="M 2.023438 -3.242188 C 2.207031 -2.972656 2.441406 -2.613281 2.714844 -2.160156 L 2.832031 -2.339844 L 3.039062 -2.0625 C 3.890625 -2.386719 4.613281 -2.777344 5.203125 -3.234375 C 5.746094 -2.808594 6.417969 -2.425781 7.226562 -2.085938 L 7.472656 -2.605469 C 6.742188 -2.878906 6.113281 -3.195312 5.59375 -3.5625 C 6.121094 -4.050781 6.53125 -4.605469 6.8125 -5.226562 L 6.8125 -5.660156 L 4.621094 -5.660156 C 4.714844 -5.847656 4.796875 -6.042969 4.875 -6.246094 L 4.339844 -6.363281 C 3.980469 -5.5 3.523438 -4.796875 2.957031 -4.261719 L 3.3125 -3.835938 C 3.539062 -4.058594 3.757812 -4.308594 3.957031 -4.574219 C 4.175781 -4.230469 4.457031 -3.902344 4.789062 -3.585938 C 4.292969 -3.21875 3.695312 -2.902344 3.011719 -2.621094 L 3.019531 -2.628906 C 2.683594 -3.085938 2.347656 -3.5 2.023438 -3.875 L 2.023438 -4.292969 L 2.871094 -4.292969 L 2.871094 -4.828125 L 2.023438 -4.828125 L 2.023438 -6.347656 L 1.46875 -6.347656 L 1.46875 -4.828125 L 0.433594 -4.828125 L 0.433594 -4.292969 L 1.460938 -4.292969 C 1.222656 -3.335938 0.824219 -2.488281 0.28125 -1.742188 L 0.519531 -1.136719 C 0.910156 -1.742188 1.230469 -2.417969 1.46875 -3.15625 L 1.46875 0.746094 L 2.023438 0.746094 Z M 6.796875 -2.140625 L 3.507812 -2.140625 L 3.507812 0.761719 L 4.050781 0.761719 L 4.050781 0.421875 L 6.253906 0.421875 L 6.253906 0.761719 L 6.796875 0.761719 Z M 4.050781 -0.101562 L 4.050781 -1.617188 L 6.253906 -1.617188 L 6.253906 -0.101562 Z M 5.171875 -3.890625 C 4.789062 -4.214844 4.480469 -4.582031 4.238281 -4.976562 C 4.269531 -5.023438 4.292969 -5.078125 4.324219 -5.125 L 6.199219 -5.125 C 5.941406 -4.675781 5.601562 -4.261719 5.171875 -3.890625 Z "/>
</g>
<g id="glyph-0-2">
<path d="M 4.921875 -3.65625 L 6.515625 -3.65625 L 6.515625 -2.285156 L 4.914062 -2.285156 C 4.914062 -2.355469 4.921875 -2.425781 4.921875 -2.503906 Z M 6.515625 -4.144531 L 4.921875 -4.144531 L 4.921875 -5.53125 L 6.515625 -5.53125 Z M 4.882812 -1.789062 L 6.515625 -1.789062 L 6.515625 -0.132812 C 6.515625 0.0859375 6.417969 0.203125 6.230469 0.203125 C 5.980469 0.203125 5.707031 0.1875 5.414062 0.171875 L 5.5625 0.707031 L 6.402344 0.707031 C 6.84375 0.707031 7.070312 0.488281 7.070312 0.0625 L 7.070312 -6.042969 L 4.378906 -6.042969 L 4.378906 -2.464844 C 4.363281 -1.296875 4.097656 -0.34375 3.570312 0.414062 L 3.996094 0.792969 C 4.496094 0.109375 4.789062 -0.746094 4.882812 -1.789062 Z M 1.359375 -3.609375 L 3.117188 -3.609375 L 3.117188 -2.714844 L 1.359375 -2.714844 Z M 3.117188 -4.113281 L 1.359375 -4.113281 L 1.359375 -5.007812 L 3.117188 -5.007812 Z M 3.054688 -1.953125 L 2.550781 -1.78125 C 2.691406 -1.492188 2.824219 -1.175781 2.957031 -0.832031 C 2.433594 -0.589844 1.90625 -0.390625 1.359375 -0.226562 L 1.359375 -2.191406 L 3.65625 -2.191406 L 3.65625 -5.515625 L 2.542969 -5.515625 C 2.433594 -5.839844 2.332031 -6.136719 2.230469 -6.386719 L 1.671875 -6.292969 C 1.78125 -6.058594 1.890625 -5.792969 1.984375 -5.515625 L 0.824219 -5.515625 L 0.824219 -0.3125 C 0.824219 -0.171875 0.738281 -0.078125 0.582031 -0.015625 L 0.714844 0.496094 C 1.664062 0.226562 2.464844 -0.0546875 3.132812 -0.34375 C 3.179688 -0.203125 3.234375 -0.0390625 3.289062 0.132812 L 3.78125 -0.09375 C 3.578125 -0.753906 3.335938 -1.375 3.054688 -1.953125 Z "/>
</g>
<g id="glyph-0-3">
<path d="M 6.371094 -6.042969 L 1.5625 -6.042969 L 1.5625 0.746094 L 2.125 0.746094 L 2.125 0.148438 L 5.800781 0.148438 L 5.800781 0.738281 L 6.371094 0.738281 Z M 2.125 -0.398438 L 2.125 -2.738281 L 5.800781 -2.738281 L 5.800781 -0.398438 Z M 2.125 -3.28125 L 2.125 -5.5 L 5.800781 -5.5 L 5.800781 -3.28125 Z "/>
</g>
<g id="glyph-0-4">
<path d="M 3.695312 -6.324219 C 2.777344 -5.445312 1.632812 -4.707031 0.265625 -4.105469 L 0.542969 -3.59375 C 1.929688 -4.222656 3.046875 -4.96875 3.890625 -5.832031 C 4.804688 -4.921875 5.910156 -4.191406 7.203125 -3.632812 L 7.496094 -4.144531 C 6.207031 -4.683594 5.070312 -5.40625 4.089844 -6.324219 Z M 1.835938 -4.238281 L 1.835938 -3.703125 L 3.6875 -3.703125 L 3.6875 -2.699219 L 0.722656 -2.699219 L 0.722656 -2.15625 L 3.6875 -2.15625 L 3.6875 -0.242188 C 3.6875 0.0390625 3.539062 0.1875 3.242188 0.1875 C 2.964844 0.1875 2.675781 0.171875 2.371094 0.15625 L 2.496094 0.683594 L 3.429688 0.683594 C 3.964844 0.683594 4.238281 0.421875 4.238281 -0.101562 L 4.238281 -2.15625 L 7.0625 -2.15625 L 7.0625 -2.699219 L 4.238281 -2.699219 L 4.238281 -3.703125 L 5.964844 -3.703125 L 5.964844 -4.238281 Z M 2.230469 -1.648438 C 1.851562 -0.941406 1.292969 -0.375 0.542969 0.046875 L 0.972656 0.40625 C 1.695312 -0.0234375 2.277344 -0.636719 2.722656 -1.445312 Z M 5.53125 -1.75 L 5.101562 -1.476562 C 5.832031 -0.785156 6.410156 -0.15625 6.828125 0.414062 L 7.296875 0.0859375 C 6.882812 -0.433594 6.292969 -1.050781 5.53125 -1.75 Z "/>
</g>
<g id="glyph-0-5">
<path d="M 1.351562 -5.046875 L 1.351562 -1.351562 C 1.027344 -1.261719 0.691406 -1.175781 0.34375 -1.089844 L 0.503906 -0.535156 C 1.40625 -0.777344 2.199219 -1.042969 2.886719 -1.328125 L 2.886719 -1.890625 C 2.582031 -1.765625 2.261719 -1.648438 1.929688 -1.53125 L 1.929688 -5.046875 L 2.832031 -5.046875 L 2.832031 -5.59375 L 0.429688 -5.59375 L 0.429688 -5.046875 Z M 3.125 -6.019531 L 3.125 -5.476562 L 5.023438 -5.476562 C 4.984375 -5.1875 4.929688 -4.90625 4.851562 -4.644531 L 3.484375 -4.644531 L 3.484375 -0.988281 L 4.019531 -0.988281 L 4.019531 -4.128906 L 6.515625 -4.128906 L 6.515625 -0.988281 L 7.0625 -0.988281 L 7.0625 -4.644531 L 5.414062 -4.644531 C 5.476562 -4.90625 5.53125 -5.179688 5.578125 -5.476562 L 7.433594 -5.476562 L 7.433594 -6.019531 Z M 5.902344 -0.972656 L 5.53125 -0.613281 C 6.199219 -0.101562 6.726562 0.382812 7.117188 0.832031 L 7.519531 0.429688 C 7.085938 -0.0390625 6.539062 -0.503906 5.902344 -0.972656 Z M 4.953125 -3.632812 L 4.953125 -2.292969 C 4.929688 -1.617188 4.753906 -1.066406 4.425781 -0.644531 C 4.066406 -0.242188 3.429688 0.0859375 2.527344 0.328125 L 2.832031 0.808594 C 3.765625 0.542969 4.433594 0.179688 4.84375 -0.28125 C 5.265625 -0.785156 5.484375 -1.453125 5.515625 -2.292969 L 5.515625 -3.632812 Z "/>
</g>
<g id="glyph-0-6">
<path d="M 6.449219 -2.09375 L 1.375 -2.09375 L 1.375 0.769531 L 1.945312 0.769531 L 1.945312 0.359375 L 5.878906 0.359375 L 5.878906 0.769531 L 6.449219 0.769531 Z M 1.945312 -0.171875 L 1.945312 -1.554688 L 5.878906 -1.554688 L 5.878906 -0.171875 Z M 1.84375 -4.722656 L 3.703125 -4.722656 L 3.703125 -3.460938 L 0.375 -3.460938 L 0.375 -2.910156 L 7.402344 -2.910156 L 7.402344 -3.460938 L 4.269531 -3.460938 L 4.269531 -4.722656 L 6.8125 -4.722656 L 6.8125 -5.257812 L 4.269531 -5.257812 L 4.269531 -6.363281 L 3.703125 -6.363281 L 3.703125 -5.257812 L 2.175781 -5.257812 C 2.332031 -5.546875 2.457031 -5.847656 2.558594 -6.175781 L 2 -6.238281 C 1.75 -5.421875 1.269531 -4.730469 0.566406 -4.167969 L 0.902344 -3.726562 C 1.269531 -4.027344 1.578125 -4.363281 1.84375 -4.722656 Z "/>
</g>
<g id="glyph-0-7">
<path d="M 4.464844 -2.675781 L 4.183594 -2.246094 C 4.613281 -2.078125 5.039062 -1.882812 5.460938 -1.648438 L 5.460938 0.792969 L 6.011719 0.792969 L 6.011719 -1.335938 C 6.386719 -1.121094 6.765625 -0.871094 7.148438 -0.589844 L 7.441406 -1.042969 C 6.992188 -1.367188 6.507812 -1.664062 6.011719 -1.9375 L 6.011719 -3.554688 L 7.335938 -3.554688 L 7.335938 -4.082031 L 3.894531 -4.082031 L 3.894531 -5.257812 C 5.109375 -5.304688 6.207031 -5.476562 7.1875 -5.761719 L 6.90625 -6.269531 C 5.863281 -5.925781 4.683594 -5.746094 3.375 -5.714844 L 3.375 -2.714844 C 3.335938 -1.421875 3.085938 -0.414062 2.621094 0.320312 L 3.019531 0.730469 C 3.5625 -0.125 3.859375 -1.277344 3.894531 -2.714844 L 3.894531 -3.554688 L 5.460938 -3.554688 L 5.460938 -2.222656 C 5.132812 -2.378906 4.804688 -2.535156 4.464844 -2.675781 Z M 1.3125 -6.246094 L 0.933594 -5.878906 C 1.453125 -5.476562 1.867188 -5.085938 2.175781 -4.722656 L 2.558594 -5.109375 C 2.214844 -5.484375 1.804688 -5.863281 1.3125 -6.246094 Z M 0.335938 -3.972656 L 0.335938 -3.4375 L 1.445312 -3.4375 L 1.445312 -0.511719 C 1.445312 -0.382812 1.382812 -0.265625 1.277344 -0.164062 L 1.492188 0.351562 C 1.960938 0.0078125 2.394531 -0.375 2.800781 -0.800781 L 2.660156 -1.390625 C 2.425781 -1.152344 2.199219 -0.925781 1.984375 -0.722656 L 1.984375 -3.972656 Z "/>
</g>
<g id="glyph-0-8">
<path d="M 3.972656 -2.738281 C 3.539062 -2.589844 3.0625 -2.449219 2.558594 -2.316406 L 2.558594 -3.71875 L 4.472656 -3.71875 C 4.535156 -3.125 4.621094 -2.613281 4.730469 -2.167969 C 4.804688 -1.867188 4.890625 -1.578125 4.984375 -1.3125 C 4.417969 -0.777344 3.757812 -0.367188 2.996094 -0.0859375 L 3.296875 0.398438 C 4.003906 0.117188 4.644531 -0.273438 5.203125 -0.769531 C 5.328125 -0.488281 5.476562 -0.242188 5.628906 -0.03125 C 5.988281 0.433594 6.324219 0.667969 6.640625 0.667969 C 7 0.667969 7.273438 0.117188 7.457031 -0.988281 L 6.96875 -1.246094 C 6.84375 -0.375 6.710938 0.0625 6.554688 0.0703125 C 6.410156 0.0703125 6.207031 -0.125 5.957031 -0.496094 C 5.832031 -0.675781 5.722656 -0.902344 5.617188 -1.167969 C 6.105469 -1.6875 6.523438 -2.308594 6.882812 -3.039062 L 6.402344 -3.296875 C 6.121094 -2.722656 5.785156 -2.207031 5.414062 -1.757812 C 5.359375 -1.929688 5.304688 -2.109375 5.257812 -2.308594 C 5.164062 -2.691406 5.09375 -3.15625 5.039062 -3.71875 L 7.394531 -3.71875 L 7.394531 -4.253906 L 4.992188 -4.253906 C 4.945312 -4.859375 4.921875 -5.554688 4.914062 -6.339844 L 4.355469 -6.339844 C 4.355469 -5.578125 4.378906 -4.882812 4.425781 -4.253906 L 2.558594 -4.253906 L 2.558594 -5.421875 C 2.964844 -5.53125 3.351562 -5.644531 3.710938 -5.769531 L 3.523438 -6.300781 C 2.667969 -5.964844 1.6875 -5.738281 0.582031 -5.617188 L 0.699219 -5.078125 C 1.144531 -5.140625 1.570312 -5.210938 1.984375 -5.296875 L 1.984375 -4.253906 L 0.382812 -4.253906 L 0.382812 -3.71875 L 1.984375 -3.71875 L 1.984375 -2.183594 C 1.476562 -2.078125 0.941406 -1.984375 0.375 -1.890625 L 0.449219 -1.320312 C 0.980469 -1.40625 1.484375 -1.507812 1.984375 -1.617188 L 1.984375 -0.140625 C 1.984375 0.0703125 1.875 0.179688 1.65625 0.179688 C 1.398438 0.179688 1.136719 0.164062 0.863281 0.140625 L 0.980469 0.675781 L 1.84375 0.675781 C 2.316406 0.675781 2.558594 0.449219 2.558594 0 L 2.558594 -1.75 C 3.054688 -1.882812 3.523438 -2.023438 3.972656 -2.167969 Z M 5.769531 -6.253906 L 5.398438 -5.894531 C 5.988281 -5.484375 6.449219 -5.09375 6.789062 -4.738281 L 7.195312 -5.140625 C 6.804688 -5.515625 6.332031 -5.878906 5.769531 -6.253906 Z "/>
</g>
<g id="glyph-0-9">
<path d="M 6.355469 0.714844 C 6.875 0.714844 7.140625 0.449219 7.140625 -0.0703125 L 7.140625 -5.847656 L 4.699219 -5.847656 L 4.699219 -5.3125 L 6.585938 -5.3125 L 6.585938 -0.226562 C 6.585938 0.0625 6.472656 0.210938 6.238281 0.210938 L 5.476562 0.195312 L 5.617188 0.714844 Z M 3.59375 -6.355469 L 3.164062 -6.082031 C 3.515625 -5.628906 3.796875 -5.210938 3.996094 -4.828125 L 4.441406 -5.140625 C 4.238281 -5.492188 3.957031 -5.894531 3.59375 -6.355469 Z M 2.125 -6.402344 C 1.734375 -5.179688 1.121094 -4.097656 0.265625 -3.148438 L 0.441406 -2.582031 C 0.746094 -2.894531 1.027344 -3.226562 1.285156 -3.570312 L 1.285156 0.792969 L 1.84375 0.792969 L 1.84375 -4.417969 C 2.160156 -4.96875 2.425781 -5.554688 2.628906 -6.167969 Z M 2.800781 -5.03125 L 2.800781 0.769531 L 3.34375 0.769531 L 3.34375 -5.03125 Z "/>
</g>
<g id="glyph-0-10">
<path d="M 1.445312 -0.925781 C 1.292969 -0.925781 1.175781 -0.886719 1.082031 -0.792969 C 0.988281 -0.707031 0.941406 -0.589844 0.941406 -0.441406 C 0.941406 -0.3125 0.988281 -0.195312 1.082031 -0.101562 C 1.175781 -0.0078125 1.285156 0.0390625 1.414062 0.0390625 C 1.492188 0.0390625 1.554688 0.0234375 1.585938 0.0078125 C 1.585938 0.195312 1.523438 0.367188 1.414062 0.527344 C 1.292969 0.683594 1.128906 0.800781 0.925781 0.871094 L 0.925781 1.253906 C 1.253906 1.167969 1.523438 0.996094 1.726562 0.746094 C 1.929688 0.480469 2.03125 0.179688 2.03125 -0.164062 C 2.03125 -0.390625 1.976562 -0.566406 1.875 -0.707031 C 1.765625 -0.855469 1.617188 -0.925781 1.445312 -0.925781 Z "/>
</g>
<g id="glyph-0-11">
<path d="M 3.3125 -6.042969 L 3.3125 -4.011719 L 6.90625 -4.011719 L 6.90625 -6.042969 Z M 6.371094 -4.503906 L 3.851562 -4.503906 L 3.851562 -5.546875 L 6.371094 -5.546875 Z M 2.886719 -2 L 2.886719 -1.476562 L 4.628906 -1.476562 C 4.550781 -1.261719 4.457031 -1.058594 4.347656 -0.871094 C 4.011719 -0.390625 3.421875 0.0078125 2.582031 0.304688 L 2.886719 0.777344 C 3.757812 0.464844 4.378906 0.046875 4.765625 -0.488281 C 4.921875 -0.722656 5.046875 -0.980469 5.148438 -1.277344 C 5.5625 -0.449219 6.230469 0.226562 7.148438 0.753906 L 7.519531 0.320312 C 6.632812 -0.132812 5.980469 -0.730469 5.5625 -1.476562 L 7.425781 -1.476562 L 7.425781 -2 L 5.320312 -2 C 5.359375 -2.253906 5.382812 -2.535156 5.390625 -2.832031 L 5.390625 -2.863281 L 7.1875 -2.863281 L 7.1875 -3.382812 L 3.085938 -3.382812 L 3.085938 -2.863281 L 4.835938 -2.863281 L 4.835938 -2.832031 C 4.828125 -2.535156 4.804688 -2.261719 4.757812 -2 Z M 1.269531 -6.277344 L 0.871094 -5.894531 C 1.429688 -5.476562 1.867188 -5.078125 2.191406 -4.707031 L 2.574219 -5.09375 C 2.214844 -5.492188 1.78125 -5.886719 1.269531 -6.277344 Z M 0.328125 -3.972656 L 0.328125 -3.4375 L 1.46875 -3.4375 L 1.46875 -0.335938 C 1.46875 -0.210938 1.40625 -0.101562 1.296875 0 L 1.515625 0.496094 C 1.984375 0.15625 2.425781 -0.242188 2.847656 -0.691406 L 2.699219 -1.285156 C 2.449219 -1.019531 2.222656 -0.785156 2.007812 -0.574219 L 2.007812 -3.972656 Z "/>
</g>
<g id="glyph-0-12">
<path d="M 0.816406 -5.492188 L 0.816406 -4.96875 L 3.648438 -4.96875 C 3.609375 -4.746094 3.5625 -4.519531 3.515625 -4.292969 L 1.269531 -4.292969 L 1.269531 -3.773438 L 3.367188 -3.773438 C 3.289062 -3.546875 3.203125 -3.328125 3.101562 -3.109375 L 0.589844 -3.109375 L 0.589844 -2.582031 L 2.832031 -2.582031 C 2.800781 -2.527344 2.761719 -2.472656 2.730469 -2.410156 C 2.183594 -1.585938 1.367188 -0.871094 0.28125 -0.28125 L 0.652344 0.203125 C 1.398438 -0.25 2.023438 -0.746094 2.527344 -1.285156 L 4.050781 -1.285156 L 4.050781 -0.03125 L 1.476562 -0.03125 L 1.476562 0.511719 L 7.25 0.511719 L 7.25 -0.03125 L 4.621094 -0.03125 L 4.621094 -1.285156 L 6.765625 -1.285156 L 6.765625 -1.828125 L 2.988281 -1.828125 C 3.046875 -1.914062 3.109375 -2 3.171875 -2.09375 C 3.265625 -2.246094 3.351562 -2.410156 3.445312 -2.582031 L 7.257812 -2.582031 L 7.257812 -3.109375 L 3.6875 -3.109375 C 3.773438 -3.320312 3.851562 -3.539062 3.925781 -3.773438 L 6.578125 -3.773438 L 6.578125 -4.292969 L 4.074219 -4.292969 C 4.128906 -4.511719 4.175781 -4.738281 4.222656 -4.96875 L 6.992188 -4.96875 L 6.992188 -5.492188 L 5.453125 -5.492188 C 5.617188 -5.753906 5.738281 -6.035156 5.824219 -6.339844 L 5.242188 -6.417969 C 5.164062 -6.097656 5.039062 -5.785156 4.875 -5.492188 L 3.070312 -5.492188 C 2.949219 -5.824219 2.816406 -6.121094 2.675781 -6.386719 L 2.101562 -6.292969 C 2.246094 -6.050781 2.386719 -5.785156 2.511719 -5.492188 Z "/>
</g>
<g id="glyph-0-13">
<path d="M 1.191406 -3.09375 L 1.191406 -1.113281 L 3.601562 -1.113281 L 3.601562 -0.675781 L 0.996094 -0.675781 L 0.996094 -0.304688 L 3.601562 -0.304688 L 3.601562 0.15625 L 0.414062 0.15625 L 0.414062 0.589844 L 7.363281 0.589844 L 7.363281 0.15625 L 4.160156 0.15625 L 4.160156 -0.304688 L 6.796875 -0.304688 L 6.796875 -0.675781 L 4.160156 -0.675781 L 4.160156 -1.113281 L 6.601562 -1.113281 L 6.601562 -3.09375 Z M 6.066406 -1.460938 L 4.160156 -1.460938 L 4.160156 -1.9375 L 6.066406 -1.9375 Z M 3.601562 -1.460938 L 1.726562 -1.460938 L 1.726562 -1.9375 L 3.601562 -1.9375 Z M 1.726562 -2.261719 L 1.726562 -2.746094 L 3.601562 -2.746094 L 3.601562 -2.261719 Z M 4.160156 -2.746094 L 6.066406 -2.746094 L 6.066406 -2.261719 L 4.160156 -2.261719 Z M 1.359375 -6.230469 L 1.359375 -4.308594 L 6.441406 -4.308594 L 6.441406 -6.230469 Z M 5.894531 -4.644531 L 1.90625 -4.644531 L 1.90625 -5.101562 L 5.894531 -5.101562 Z M 1.90625 -5.4375 L 1.90625 -5.886719 L 5.894531 -5.886719 L 5.894531 -5.4375 Z M 0.40625 -3.902344 L 0.40625 -3.484375 L 7.371094 -3.484375 L 7.371094 -3.902344 Z "/>
</g>
<g id="glyph-0-14">
<path d="M 2.707031 -0.863281 C 2.023438 -0.589844 1.222656 -0.375 0.3125 -0.210938 L 0.382812 0.335938 C 1.253906 0.171875 2.023438 -0.0546875 2.707031 -0.335938 Z M 1.757812 -6.363281 C 1.429688 -5.476562 1.042969 -4.683594 0.597656 -3.988281 C 0.527344 -3.890625 0.449219 -3.820312 0.367188 -3.789062 L 0.503906 -3.273438 C 0.957031 -3.328125 1.40625 -3.390625 1.859375 -3.460938 C 1.421875 -2.761719 1.050781 -2.269531 0.738281 -1.976562 C 0.667969 -1.914062 0.582031 -1.859375 0.480469 -1.820312 L 0.628906 -1.3125 C 1.382812 -1.40625 2.175781 -1.570312 3.003906 -1.820312 L 3.003906 -2.324219 C 2.441406 -2.15625 1.875 -2.015625 1.3125 -1.914062 C 1.796875 -2.449219 2.394531 -3.351562 3.125 -4.613281 L 2.636719 -4.789062 C 2.472656 -4.503906 2.316406 -4.230469 2.167969 -3.964844 C 1.796875 -3.902344 1.421875 -3.859375 1.050781 -3.820312 C 1.46875 -4.394531 1.882812 -5.171875 2.285156 -6.152344 Z M 3.882812 -5.507812 L 3.882812 -5.085938 C 3.867188 -2.574219 3.351562 -0.753906 2.339844 0.382812 L 2.753906 0.746094 C 3.539062 -0.140625 4.050781 -1.40625 4.285156 -3.046875 C 4.527344 -2.253906 4.882812 -1.539062 5.351562 -0.910156 C 4.90625 -0.441406 4.355469 -0.046875 3.703125 0.273438 L 4.011719 0.785156 C 4.683594 0.457031 5.257812 0.0546875 5.722656 -0.441406 C 6.113281 0.0078125 6.585938 0.414062 7.132812 0.769531 L 7.480469 0.304688 C 6.9375 -0.0390625 6.464844 -0.421875 6.058594 -0.855469 C 6.617188 -1.59375 6.976562 -2.503906 7.140625 -3.578125 L 7.140625 -3.890625 L 6.152344 -3.890625 C 6.277344 -4.386719 6.402344 -4.984375 6.523438 -5.683594 L 6.523438 -6.035156 L 3.109375 -6.035156 L 3.109375 -5.507812 Z M 5.675781 -1.296875 C 5.023438 -2.132812 4.597656 -3.117188 4.402344 -4.253906 C 4.417969 -4.519531 4.425781 -4.796875 4.425781 -5.085938 L 4.425781 -5.507812 L 5.949219 -5.507812 C 5.785156 -4.582031 5.636719 -3.882812 5.5 -3.398438 L 6.578125 -3.398438 C 6.425781 -2.597656 6.128906 -1.898438 5.675781 -1.296875 Z "/>
</g>
<g id="glyph-0-15">
<path d="M 1.757812 -6.386719 L 1.390625 -2.972656 L 5.816406 -2.972656 C 5.816406 -1.492188 5.722656 -0.589844 5.546875 -0.273438 C 5.375 0.0234375 4.84375 0.171875 3.964844 0.171875 C 3.8125 0.171875 3.546875 0.148438 3.164062 0.117188 L 3.3125 0.628906 C 3.578125 0.644531 3.835938 0.660156 4.082031 0.660156 C 5.03125 0.660156 5.652344 0.496094 5.941406 0.179688 C 6.238281 -0.15625 6.386719 -1.375 6.386719 -3.492188 L 2.015625 -3.492188 L 2.148438 -4.757812 L 6.914062 -4.757812 L 6.914062 -5.296875 L 2.199219 -5.296875 L 2.308594 -6.339844 Z M 0.390625 -1.71875 L 0.390625 -1.183594 L 4.78125 -1.183594 L 4.78125 -1.71875 Z "/>
</g>
<g id="glyph-0-16">
<path d="M 0.429688 -5.941406 L 0.429688 -5.390625 L 3.398438 -5.390625 L 3.398438 0.792969 L 3.964844 0.792969 L 3.964844 -3.625 C 4.667969 -3.25 5.539062 -2.722656 6.570312 -2.039062 L 6.90625 -2.535156 C 5.910156 -3.171875 4.929688 -3.734375 3.964844 -4.214844 L 3.964844 -5.390625 L 7.34375 -5.390625 L 7.34375 -5.941406 Z "/>
</g>
<g id="glyph-0-17">
<path d="M 0.390625 -3.132812 L 0.390625 -2.574219 L 7.378906 -2.574219 L 7.378906 -3.132812 Z "/>
</g>
<g id="glyph-0-18">
<path d="M 5.585938 -3.585938 L 5.585938 0.722656 L 6.128906 0.722656 L 6.128906 -3.585938 Z M 3.882812 -3.570312 L 3.882812 -2.472656 C 3.867188 -1.152344 3.5 -0.1875 2.785156 0.421875 L 3.203125 0.785156 C 3.996094 0.101562 4.410156 -0.988281 4.425781 -2.472656 L 4.425781 -3.570312 Z M 4.683594 -6.285156 C 4.191406 -5.148438 3.5 -4.222656 2.605469 -3.507812 L 2.917969 -3.03125 C 3.734375 -3.671875 4.410156 -4.574219 4.953125 -5.738281 C 5.445312 -4.691406 6.183594 -3.8125 7.179688 -3.09375 L 7.488281 -3.570312 C 6.417969 -4.347656 5.660156 -5.257812 5.21875 -6.285156 Z M 0.660156 -6.027344 L 0.660156 0.746094 L 1.207031 0.746094 L 1.207031 -5.5 L 2.417969 -5.5 C 2.214844 -4.84375 1.9375 -4.113281 1.578125 -3.304688 C 2.117188 -2.636719 2.386719 -2.039062 2.386719 -1.492188 C 2.386719 -1.335938 2.339844 -1.222656 2.253906 -1.160156 C 2.160156 -1.097656 1.984375 -1.050781 1.71875 -1.035156 C 1.640625 -1.035156 1.539062 -1.050781 1.414062 -1.066406 L 1.601562 -0.496094 C 2.132812 -0.503906 2.496094 -0.597656 2.699219 -0.777344 C 2.855469 -0.925781 2.933594 -1.167969 2.933594 -1.492188 C 2.902344 -2.0625 2.636719 -2.691406 2.140625 -3.390625 C 2.464844 -4.152344 2.746094 -4.882812 2.980469 -5.585938 L 2.980469 -6.027344 Z "/>
</g>
<g id="glyph-0-19">
<path d="M 0.382812 -2.046875 L 0.382812 -1.5 L 5.117188 -1.5 L 5.117188 0.0078125 C 5.117188 0.195312 5 0.289062 4.773438 0.289062 C 4.480469 0.289062 4.175781 0.273438 3.851562 0.25 L 3.972656 0.800781 L 4.96875 0.800781 C 5.4375 0.800781 5.675781 0.582031 5.675781 0.148438 L 5.675781 -1.5 L 7.386719 -1.5 L 7.386719 -2.046875 L 5.675781 -2.046875 L 5.675781 -2.535156 L 5.117188 -2.535156 L 5.117188 -2.046875 Z M 6.214844 -6.050781 L 1.199219 -6.050781 L 1.199219 -3.4375 C 1.199219 -3.019531 1.421875 -2.800781 1.890625 -2.800781 L 6.417969 -2.800781 C 6.742188 -2.816406 6.960938 -2.933594 7.070312 -3.164062 C 7.132812 -3.320312 7.1875 -3.570312 7.226562 -3.917969 L 6.695312 -4.089844 C 6.664062 -3.765625 6.617188 -3.5625 6.570312 -3.476562 C 6.507812 -3.382812 6.410156 -3.328125 6.253906 -3.320312 L 2.09375 -3.320312 C 1.875 -3.320312 1.757812 -3.429688 1.757812 -3.640625 L 1.757812 -4.199219 L 6.214844 -4.199219 Z M 1.757812 -4.714844 L 1.757812 -5.546875 L 5.652344 -5.546875 L 5.652344 -4.714844 Z M 2.167969 -1.269531 L 1.773438 -0.886719 C 2.316406 -0.441406 2.753906 -0.0234375 3.0625 0.375 L 3.484375 -0.046875 C 3.125 -0.449219 2.691406 -0.863281 2.167969 -1.269531 Z "/>
</g>
<g id="glyph-0-20">
<path d="M 5.117188 -4.628906 L 6.269531 -4.628906 C 6.238281 -3.578125 6.074219 -2.660156 5.769531 -1.875 C 5.460938 -2.527344 5.210938 -3.3125 5.015625 -4.222656 Z M 5.515625 -1.3125 C 5.15625 -0.652344 4.683594 -0.117188 4.074219 0.304688 L 4.363281 0.769531 C 4.945312 0.351562 5.429688 -0.171875 5.800781 -0.792969 C 6.191406 -0.140625 6.65625 0.390625 7.203125 0.777344 L 7.503906 0.320312 C 6.945312 -0.0625 6.472656 -0.597656 6.066406 -1.296875 C 6.5 -2.214844 6.742188 -3.328125 6.78125 -4.628906 L 7.289062 -4.628906 L 7.289062 -5.164062 L 5.234375 -5.164062 C 5.296875 -5.507812 5.359375 -5.878906 5.40625 -6.277344 L 4.859375 -6.371094 C 4.707031 -4.890625 4.394531 -3.71875 3.933594 -2.847656 L 4.285156 -2.417969 C 4.449219 -2.699219 4.605469 -3.019531 4.746094 -3.375 C 4.953125 -2.597656 5.210938 -1.914062 5.515625 -1.3125 Z M 1.828125 -2.738281 C 1.773438 -2.582031 1.710938 -2.417969 1.640625 -2.246094 L 0.503906 -2.246094 L 0.503906 -1.757812 L 1.421875 -1.757812 C 1.269531 -1.445312 1.089844 -1.128906 0.886719 -0.785156 C 1.269531 -0.644531 1.625 -0.496094 1.96875 -0.351562 C 1.515625 -0.09375 0.964844 0.117188 0.328125 0.289062 L 0.589844 0.753906 C 1.367188 0.535156 2.015625 0.25 2.527344 -0.109375 C 2.988281 0.09375 3.382812 0.304688 3.726562 0.503906 L 4.027344 0.0703125 C 3.6875 -0.117188 3.328125 -0.289062 2.957031 -0.457031 C 3.359375 -0.832031 3.648438 -1.277344 3.820312 -1.789062 L 3.820312 -2.246094 L 2.191406 -2.246094 C 2.238281 -2.386719 2.292969 -2.527344 2.347656 -2.675781 Z M 2.441406 -0.675781 C 2.160156 -0.792969 1.867188 -0.902344 1.554688 -1.011719 C 1.710938 -1.246094 1.851562 -1.492188 1.976562 -1.757812 L 3.3125 -1.757812 C 3.125 -1.351562 2.832031 -0.988281 2.441406 -0.675781 Z M 1.121094 -6.207031 L 0.675781 -6.058594 C 0.863281 -5.761719 1.035156 -5.429688 1.199219 -5.046875 L 1.601562 -5.234375 C 1.460938 -5.578125 1.304688 -5.902344 1.121094 -6.207031 Z M 3.484375 -6.230469 C 3.34375 -5.902344 3.140625 -5.578125 2.894531 -5.242188 L 3.289062 -5.039062 C 3.539062 -5.367188 3.734375 -5.699219 3.890625 -6.042969 Z M 0.519531 -4.859375 L 0.519531 -4.371094 L 1.625 -4.371094 C 1.390625 -3.941406 0.972656 -3.554688 0.375 -3.203125 L 0.644531 -2.753906 C 1.3125 -3.203125 1.78125 -3.734375 2.039062 -4.347656 L 2.039062 -2.871094 L 2.558594 -2.871094 L 2.558594 -3.882812 C 2.839844 -3.695312 3.171875 -3.445312 3.5625 -3.132812 L 3.851562 -3.570312 C 3.414062 -3.835938 2.980469 -4.074219 2.558594 -4.285156 L 2.558594 -4.371094 L 3.972656 -4.371094 L 3.972656 -4.859375 L 2.558594 -4.859375 L 2.558594 -6.347656 L 2.039062 -6.347656 L 2.039062 -4.859375 Z "/>
</g>
<g id="glyph-0-21">
<path d="M 7.078125 -5.824219 L 4.105469 -5.824219 L 4.105469 0.542969 L 4.644531 0.542969 L 4.644531 -0.148438 L 6.53125 -0.148438 L 6.53125 0.464844 L 7.078125 0.464844 Z M 4.644531 -0.675781 L 4.644531 -5.304688 L 6.53125 -5.304688 L 6.53125 -0.675781 Z M 0.550781 -4.214844 L 0.550781 -3.695312 L 1.914062 -3.695312 L 1.914062 -3.640625 C 1.59375 -2.785156 1.074219 -2.015625 0.351562 -1.328125 L 0.582031 -0.722656 C 1.136719 -1.320312 1.578125 -1.992188 1.914062 -2.730469 L 1.914062 0.722656 L 2.457031 0.722656 L 2.457031 -2.785156 C 2.746094 -2.457031 3.085938 -2.015625 3.492188 -1.460938 L 3.820312 -1.945312 C 3.359375 -2.457031 2.910156 -2.910156 2.457031 -3.304688 L 2.457031 -3.695312 L 3.789062 -3.695312 L 3.789062 -4.214844 L 2.457031 -4.214844 L 2.457031 -5.445312 C 2.894531 -5.539062 3.304688 -5.660156 3.710938 -5.808594 L 3.445312 -6.277344 C 2.667969 -5.980469 1.703125 -5.785156 0.542969 -5.691406 L 0.722656 -5.195312 C 1.128906 -5.226562 1.523438 -5.273438 1.914062 -5.335938 L 1.914062 -4.214844 Z "/>
</g>
<g id="glyph-0-22">
<rect x="0" y="0" width="0" height="0" mask="url(#mask-0)"/>
</g>
<g id="glyph-0-23">
<path d="M 0.210938 -4.019531 L 1.632812 -2.132812 L 0.0390625 0 L 0.777344 0 L 1.984375 -1.671875 L 3.179688 0 L 3.917969 0 L 2.324219 -2.132812 L 3.75 -4.019531 L 3.019531 -4.019531 L 1.984375 -2.589844 L 0.941406 -4.019531 Z "/>
</g>
<g id="glyph-0-24">
<path d="M 3.382812 -4.105469 L 3.382812 -3.625 L 4.921875 -3.625 L 4.921875 -4.105469 Z M 3.429688 -3.003906 L 3.429688 -0.707031 L 4.9375 -0.707031 L 4.9375 -3.003906 Z M 4.519531 -1.128906 L 3.851562 -1.128906 L 3.851562 -2.582031 L 4.519531 -2.582031 Z M 6.679688 -4.113281 C 6.523438 -3.289062 6.300781 -2.566406 6.019531 -1.9375 C 5.972656 -2.175781 5.933594 -2.441406 5.902344 -2.722656 C 5.816406 -3.414062 5.761719 -4.097656 5.730469 -4.78125 L 7.3125 -4.78125 L 7.3125 -5.304688 L 6.9375 -5.304688 C 6.8125 -5.617188 6.679688 -5.902344 6.539062 -6.152344 L 6.082031 -6.074219 C 6.238281 -5.839844 6.378906 -5.585938 6.5 -5.304688 L 5.707031 -5.304688 C 5.691406 -5.652344 5.683594 -6.003906 5.683594 -6.355469 L 5.164062 -6.355469 C 5.164062 -6.003906 5.164062 -5.652344 5.179688 -5.304688 L 2.488281 -5.304688 L 2.488281 -2.621094 C 2.464844 -1.328125 2.199219 -0.328125 1.6875 0.398438 L 2.101562 0.761719 C 2.667969 -0.0859375 2.964844 -1.214844 2.996094 -2.621094 L 2.996094 -4.78125 L 5.210938 -4.78125 C 5.257812 -3.902344 5.34375 -3.070312 5.476562 -2.277344 C 5.539062 -1.921875 5.601562 -1.585938 5.675781 -1.285156 C 5.257812 -0.597656 4.746094 -0.0703125 4.121094 0.289062 L 4.457031 0.714844 C 4.984375 0.398438 5.453125 -0.0546875 5.855469 -0.628906 C 5.941406 -0.351562 6.035156 -0.117188 6.144531 0.0703125 C 6.378906 0.496094 6.625 0.714844 6.898438 0.714844 C 7.289062 0.714844 7.488281 0.132812 7.496094 -1.019531 L 7.039062 -1.230469 C 7.023438 -0.304688 6.960938 0.164062 6.859375 0.171875 C 6.71875 0.15625 6.5625 -0.0625 6.394531 -0.464844 C 6.316406 -0.660156 6.246094 -0.886719 6.183594 -1.152344 C 6.59375 -1.898438 6.921875 -2.824219 7.15625 -3.910156 Z M 0.839844 -6.035156 L 0.382812 -5.746094 C 0.863281 -5.109375 1.238281 -4.527344 1.515625 -4.003906 L 1.960938 -4.316406 C 1.703125 -4.804688 1.328125 -5.382812 0.839844 -6.035156 Z M 1.585938 -2.855469 C 1.238281 -1.765625 0.824219 -0.691406 0.351562 0.351562 L 0.871094 0.582031 C 1.304688 -0.429688 1.710938 -1.507812 2.070312 -2.660156 Z "/>
</g>
<g id="glyph-0-25">
<path d="M 2.230469 -4.128906 C 1.75 -4.128906 1.367188 -4.035156 1.074219 -3.851562 C 0.746094 -3.648438 0.535156 -3.328125 0.449219 -2.910156 L 1.066406 -2.863281 C 1.128906 -3.117188 1.261719 -3.3125 1.46875 -3.4375 C 1.65625 -3.5625 1.898438 -3.617188 2.191406 -3.617188 C 2.894531 -3.617188 3.242188 -3.28125 3.242188 -2.605469 L 3.242188 -2.394531 L 2.277344 -2.378906 C 1.671875 -2.371094 1.207031 -2.253906 0.878906 -2.039062 C 0.503906 -1.804688 0.328125 -1.460938 0.328125 -1.003906 C 0.328125 -0.675781 0.449219 -0.40625 0.699219 -0.195312 C 0.941406 0.0078125 1.261719 0.109375 1.664062 0.109375 C 2.039062 0.109375 2.371094 0.0234375 2.667969 -0.140625 C 2.917969 -0.28125 3.125 -0.457031 3.28125 -0.675781 L 3.28125 0 L 3.867188 0 L 3.867188 -2.582031 C 3.867188 -3.046875 3.742188 -3.414062 3.507812 -3.679688 C 3.226562 -3.980469 2.808594 -4.128906 2.230469 -4.128906 Z M 3.242188 -1.929688 L 3.242188 -1.585938 C 3.242188 -1.277344 3.09375 -0.996094 2.808594 -0.753906 C 2.511719 -0.503906 2.175781 -0.382812 1.796875 -0.382812 C 1.546875 -0.382812 1.34375 -0.441406 1.191406 -0.558594 C 1.035156 -0.683594 0.964844 -0.832031 0.964844 -1.019531 C 0.964844 -1.601562 1.414062 -1.898438 2.316406 -1.914062 Z "/>
</g>
<g id="glyph-0-26">
<path d="M 3.140625 -5.007812 L 1.890625 -5.007812 C 2.046875 -5.398438 2.160156 -5.824219 2.253906 -6.285156 L 1.695312 -6.363281 C 1.625 -5.894531 1.515625 -5.445312 1.359375 -5.007812 L 0.636719 -5.007812 L 0.636719 0.519531 L 1.183594 0.519531 L 1.183594 -0.148438 L 2.597656 -0.148438 L 2.597656 0.296875 L 3.140625 0.296875 Z M 1.183594 -0.667969 L 1.183594 -2.371094 L 2.597656 -2.371094 L 2.597656 -0.667969 Z M 1.183594 -2.878906 L 1.183594 -4.480469 L 2.597656 -4.480469 L 2.597656 -2.878906 Z M 4.496094 -3.203125 L 4.042969 -2.925781 C 4.582031 -2.285156 5.007812 -1.710938 5.328125 -1.199219 L 5.769531 -1.507812 C 5.476562 -1.992188 5.054688 -2.558594 4.496094 -3.203125 Z M 7.164062 -5 L 4.683594 -5 C 4.820312 -5.40625 4.929688 -5.839844 5.023438 -6.300781 L 4.472656 -6.371094 C 4.269531 -5.265625 3.902344 -4.332031 3.359375 -3.570312 L 3.695312 -3.125 C 3.996094 -3.523438 4.253906 -3.964844 4.472656 -4.457031 L 6.609375 -4.457031 C 6.59375 -2.214844 6.5625 -0.871094 6.515625 -0.433594 C 6.457031 -0.0390625 6.246094 0.164062 5.878906 0.164062 C 5.636719 0.164062 5.359375 0.15625 5.03125 0.140625 L 5.164062 0.652344 C 5.539062 0.667969 5.800781 0.683594 5.957031 0.683594 C 6.609375 0.683594 6.96875 0.382812 7.046875 -0.210938 C 7.125 -0.816406 7.164062 -2.417969 7.164062 -5 Z "/>
</g>
<g id="glyph-0-27">
<path d="M 2.363281 -4.128906 C 2.101562 -4.128906 1.859375 -4.066406 1.640625 -3.941406 C 1.421875 -3.828125 1.246094 -3.65625 1.105469 -3.429688 L 1.105469 -4.019531 L 0.480469 -4.019531 L 0.480469 0 L 1.105469 0 L 1.105469 -2.425781 C 1.128906 -2.792969 1.246094 -3.078125 1.460938 -3.296875 C 1.664062 -3.5 1.90625 -3.601562 2.183594 -3.601562 C 2.886719 -3.601562 3.242188 -3.210938 3.242188 -2.425781 L 3.242188 0 L 3.867188 0 L 3.867188 -2.472656 C 3.867188 -3.578125 3.359375 -4.128906 2.363281 -4.128906 Z "/>
</g>
<g id="glyph-0-28">
<path d="M 7.085938 -5.195312 L 4.542969 -5.195312 L 4.542969 0.660156 L 5.078125 0.660156 L 5.078125 0.140625 L 6.539062 0.140625 L 6.539062 0.660156 L 7.085938 0.660156 Z M 5.078125 -0.398438 L 5.078125 -4.660156 L 6.539062 -4.660156 L 6.539062 -0.398438 Z M 1.679688 -6.332031 L 1.679688 -4.757812 L 0.433594 -4.757812 L 0.433594 -4.214844 L 1.679688 -4.214844 C 1.65625 -2.085938 1.191406 -0.527344 0.289062 0.441406 L 0.699219 0.808594 C 1.695312 -0.25 2.207031 -1.921875 2.238281 -4.214844 L 3.273438 -4.214844 C 3.257812 -2.132812 3.226562 -0.878906 3.179688 -0.472656 C 3.117188 -0.03125 2.886719 0.195312 2.488281 0.195312 C 2.300781 0.195312 2.085938 0.179688 1.835938 0.164062 L 1.976562 0.675781 C 2.253906 0.691406 2.449219 0.707031 2.566406 0.707031 C 3.25 0.707031 3.632812 0.382812 3.710938 -0.257812 C 3.789062 -0.832031 3.828125 -2.332031 3.828125 -4.757812 L 2.238281 -4.757812 L 2.238281 -6.332031 Z "/>
</g>
<g id="glyph-0-29">
<path d="M 3.757812 -4.636719 L 6.578125 -4.636719 C 6.425781 -4.027344 6.230469 -3.484375 5.988281 -3.003906 L 6.539062 -2.847656 C 6.804688 -3.492188 7.015625 -4.144531 7.179688 -4.804688 L 7.179688 -5.171875 L 3.910156 -5.171875 C 3.996094 -5.515625 4.066406 -5.886719 4.128906 -6.292969 L 3.570312 -6.378906 C 3.382812 -5.023438 2.972656 -3.957031 2.332031 -3.195312 L 2.800781 -2.871094 C 3.195312 -3.320312 3.515625 -3.910156 3.757812 -4.636719 Z M 4.558594 -4.105469 C 4.542969 -3.09375 4.410156 -2.253906 4.160156 -1.59375 C 3.8125 -0.816406 3.109375 -0.164062 2.054688 0.351562 L 2.417969 0.792969 C 3.617188 0.203125 4.378906 -0.558594 4.714844 -1.492188 C 4.773438 -1.664062 4.828125 -1.84375 4.875 -2.039062 C 5.375 -0.917969 6.121094 0.015625 7.132812 0.777344 L 7.496094 0.351562 C 6.324219 -0.457031 5.507812 -1.554688 5.039062 -2.941406 C 5.078125 -3.296875 5.101562 -3.6875 5.101562 -4.105469 Z M 0.839844 -6.019531 L 0.390625 -5.738281 C 0.980469 -5.148438 1.453125 -4.605469 1.804688 -4.121094 L 2.238281 -4.433594 C 1.914062 -4.882812 1.445312 -5.414062 0.839844 -6.019531 Z M 1.789062 -2.683594 C 1.367188 -1.671875 0.878906 -0.675781 0.304688 0.296875 L 0.824219 0.527344 C 1.359375 -0.414062 1.84375 -1.421875 2.277344 -2.496094 Z "/>
</g>
<g id="glyph-0-30">
<path d="M 0.503906 -5.203125 L 0.503906 -4.667969 L 2.675781 -4.667969 C 2.667969 -4.402344 2.652344 -4.027344 2.628906 -3.539062 C 2.589844 -2.800781 2.441406 -2.132812 2.175781 -1.53125 C 1.90625 -0.933594 1.351562 -0.289062 0.527344 0.414062 L 0.933594 0.800781 C 1.617188 0.25 2.148438 -0.359375 2.527344 -1.027344 C 2.808594 -1.539062 3.003906 -2.109375 3.101562 -2.738281 L 5.824219 -2.738281 C 5.808594 -1.664062 5.785156 -0.957031 5.738281 -0.628906 C 5.644531 -0.0859375 5.40625 0.195312 5.007812 0.210938 C 4.738281 0.210938 4.402344 0.203125 3.996094 0.1875 L 4.167969 0.691406 C 4.511719 0.707031 4.8125 0.722656 5.0625 0.722656 C 5.675781 0.699219 6.058594 0.359375 6.214844 -0.304688 C 6.316406 -0.738281 6.378906 -1.726562 6.394531 -3.265625 L 3.164062 -3.265625 L 3.164062 -3.28125 L 3.234375 -4.667969 L 7.335938 -4.667969 L 7.335938 -5.203125 L 4.425781 -5.203125 C 4.238281 -5.660156 4.035156 -6.058594 3.820312 -6.386719 L 3.289062 -6.191406 C 3.515625 -5.878906 3.703125 -5.546875 3.859375 -5.203125 Z "/>
</g>
<g id="glyph-0-31">
<path d="M 7.09375 -5.894531 L 3.460938 -5.894531 L 3.460938 0.785156 L 3.996094 0.785156 L 3.996094 0.296875 L 6.546875 0.296875 L 6.546875 0.777344 L 7.09375 0.777344 Z M 3.996094 -0.234375 L 3.996094 -1.609375 L 6.546875 -1.609375 L 6.546875 -0.234375 Z M 3.996094 -2.132812 L 3.996094 -3.507812 L 6.546875 -3.507812 L 6.546875 -2.132812 Z M 3.996094 -4.027344 L 3.996094 -5.367188 L 6.546875 -5.367188 L 6.546875 -4.027344 Z M 2.09375 -3.289062 C 2.308594 -3.003906 2.566406 -2.628906 2.863281 -2.175781 L 3.164062 -2.628906 C 2.808594 -3.085938 2.449219 -3.507812 2.09375 -3.882812 L 2.09375 -4.292969 L 3.09375 -4.292969 L 3.09375 -4.828125 L 2.09375 -4.828125 L 2.09375 -6.347656 L 1.539062 -6.347656 L 1.539062 -4.828125 L 0.441406 -4.828125 L 0.441406 -4.292969 L 1.523438 -4.292969 C 1.277344 -3.320312 0.871094 -2.457031 0.304688 -1.703125 L 0.519531 -1.152344 C 0.941406 -1.757812 1.277344 -2.425781 1.539062 -3.171875 L 1.539062 0.769531 L 2.09375 0.769531 Z "/>
</g>
<g id="glyph-0-32">
<path d="M 2.410156 -6.324219 L 1.898438 -6.074219 C 2.214844 -5.683594 2.511719 -5.242188 2.792969 -4.746094 L 3.296875 -5 C 3.019531 -5.484375 2.722656 -5.917969 2.410156 -6.324219 Z M 5.335938 -6.394531 C 5.101562 -5.738281 4.84375 -5.1875 4.550781 -4.738281 L 0.996094 -4.738281 L 0.996094 -4.191406 L 3.601562 -4.191406 L 3.601562 -3.828125 C 3.59375 -3.445312 3.554688 -3.085938 3.484375 -2.746094 L 0.550781 -2.746094 L 0.550781 -2.199219 L 3.34375 -2.199219 C 3.234375 -1.859375 3.085938 -1.554688 2.902344 -1.277344 C 2.433594 -0.652344 1.601562 -0.148438 0.414062 0.234375 L 0.714844 0.722656 C 1.914062 0.34375 2.777344 -0.195312 3.304688 -0.878906 C 3.554688 -1.214844 3.75 -1.601562 3.894531 -2.046875 C 4.316406 -0.863281 5.375 0.078125 7.085938 0.769531 L 7.410156 0.25 C 5.777344 -0.335938 4.773438 -1.152344 4.394531 -2.199219 L 7.226562 -2.199219 L 7.226562 -2.746094 L 4.066406 -2.746094 C 4.128906 -3.070312 4.160156 -3.4375 4.175781 -3.828125 L 4.175781 -4.191406 L 6.773438 -4.191406 L 6.773438 -4.738281 L 5.171875 -4.738281 C 5.453125 -5.179688 5.683594 -5.683594 5.871094 -6.246094 Z "/>
</g>
<g id="glyph-0-33">
<path d="M 1.945312 -1.105469 C 1.664062 -1.105469 1.421875 -1.011719 1.230469 -0.824219 C 1.027344 -0.636719 0.933594 -0.40625 0.933594 -0.125 C 0.933594 0.15625 1.027344 0.390625 1.230469 0.574219 C 1.421875 0.753906 1.664062 0.847656 1.945312 0.847656 C 2.222656 0.847656 2.457031 0.753906 2.660156 0.566406 C 2.855469 0.382812 2.957031 0.148438 2.957031 -0.125 C 2.957031 -0.40625 2.855469 -0.636719 2.660156 -0.824219 C 2.457031 -1.011719 2.222656 -1.105469 1.945312 -1.105469 Z M 1.945312 -0.699219 C 2.101562 -0.699219 2.238281 -0.644531 2.355469 -0.527344 C 2.472656 -0.421875 2.535156 -0.289062 2.535156 -0.125 C 2.535156 0.03125 2.472656 0.164062 2.355469 0.273438 C 2.238281 0.382812 2.101562 0.441406 1.945312 0.441406 C 1.78125 0.441406 1.640625 0.382812 1.53125 0.273438 C 1.40625 0.164062 1.351562 0.03125 1.351562 -0.125 C 1.351562 -0.289062 1.40625 -0.421875 1.53125 -0.527344 C 1.640625 -0.644531 1.78125 -0.699219 1.945312 -0.699219 Z "/>
</g>
</g>
<image id="source-196" x="0" y="0" width="0" height="0"/>
<mask id="mask-0">
<use xlink:href="#source-196"/>
</mask>
</defs>
<g fill="rgb(100%, 100%, 100%)" fill-opacity="1">
<use xlink:href="#glyph-0-0" x="30" y="28.244141"/>
<use xlink:href="#glyph-0-1" x="38" y="28.244141"/>
<use xlink:href="#glyph-0-2" x="46" y="28.244141"/>
<use xlink:href="#glyph-0-3" x="54" y="28.244141"/>
<use xlink:href="#glyph-0-4" x="62" y="28.244141"/>
<use xlink:href="#glyph-0-5" x="70" y="28.244141"/>
<use xlink:href="#glyph-0-6" x="78" y="28.244141"/>
<use xlink:href="#glyph-0-7" x="86" y="28.244141"/>
<use xlink:href="#glyph-0-8" x="94" y="28.244141"/>
<use xlink:href="#glyph-0-9" x="102" y="28.244141"/>
<use xlink:href="#glyph-0-10" x="110" y="28.244141"/>
<use xlink:href="#glyph-0-11" x="118" y="28.244141"/>
<use xlink:href="#glyph-0-12" x="126" y="28.244141"/>
<use xlink:href="#glyph-0-13" x="134" y="28.244141"/>
<use xlink:href="#glyph-0-14" x="142" y="28.244141"/>
<use xlink:href="#glyph-0-15" x="150" y="28.244141"/>
<use xlink:href="#glyph-0-16" x="158" y="28.244141"/>
<use xlink:href="#glyph-0-17" x="166" y="28.244141"/>
<use xlink:href="#glyph-0-18" x="174" y="28.244141"/>
<use xlink:href="#glyph-0-19" x="182" y="28.244141"/>
<use xlink:href="#glyph-0-20" x="190" y="28.244141"/>
<use xlink:href="#glyph-0-21" x="198" y="28.244141"/>
<use xlink:href="#glyph-0-22" x="206" y="28.244141"/>
</g>
<g fill="rgb(100%, 100%, 100%)" fill-opacity="1">
<use xlink:href="#glyph-0-23" x="209" y="28.244141"/>
<use xlink:href="#glyph-0-22" x="213" y="28.244141"/>
</g>
<g fill="rgb(100%, 100%, 100%)" fill-opacity="1">
<use xlink:href="#glyph-0-24" x="216" y="28.244141"/>
<use xlink:href="#glyph-0-22" x="224" y="28.244141"/>
</g>
<g fill="rgb(100%, 100%, 100%)" fill-opacity="1">
<use xlink:href="#glyph-0-25" x="227" y="28.244141"/>
<use xlink:href="#glyph-0-22" x="231" y="28.244141"/>
</g>
<g fill="rgb(100%, 100%, 100%)" fill-opacity="1">
<use xlink:href="#glyph-0-26" x="234" y="28.244141"/>
<use xlink:href="#glyph-0-22" x="242" y="28.244141"/>
</g>
<g fill="rgb(100%, 100%, 100%)" fill-opacity="1">
<use xlink:href="#glyph-0-27" x="245" y="28.244141"/>
<use xlink:href="#glyph-0-22" x="249" y="28.244141"/>
</g>
<g fill="rgb(100%, 100%, 100%)" fill-opacity="1">
<use xlink:href="#glyph-0-28" x="252" y="28.244141"/>
<use xlink:href="#glyph-0-17" x="260" y="28.244141"/>
<use xlink:href="#glyph-0-29" x="268" y="28.244141"/>
<use xlink:href="#glyph-0-30" x="276" y="28.244141"/>
<use xlink:href="#glyph-0-31" x="284" y="28.244141"/>
<use xlink:href="#glyph-0-32" x="292" y="28.244141"/>
<use xlink:href="#glyph-0-33" x="300" y="28.244141"/>
</g>
</svg>
