<?xml version="1.0" encoding="UTF-8"?>
<svg xmlns="http://www.w3.org/2000/svg" xmlns:xlink="http://www.w3.org/1999/xlink" width="854" height="480" viewBox="0 0 854 480">
<defs>
<g>
<g id="glyph-0-0">
<path d="M 1.726562 -4.332031 L 1.726562 -3.765625 L 3.90625 -3.765625 L 3.90625 -0.132812 C 3.824219 -0.148438 3.742188 -0.175781 3.667969 -0.199219 C 3.066406 -0.390625 2.566406 -0.839844 2.167969 -1.558594 C 2.316406 -1.992188 2.449219 -2.464844 2.550781 -2.984375 L 1.964844 -3.082031 C 1.683594 -1.648438 1.148438 -0.507812 0.351562 0.339844 L 0.734375 0.816406 C 1.207031 0.332031 1.609375 -0.265625 1.933594 -0.984375 C 2.273438 -0.441406 2.726562 -0.0429688 3.273438 0.214844 C 4.007812 0.523438 5.207031 0.683594 6.890625 0.683594 L 7.824219 0.683594 L 7.933594 0.0820312 C 7.484375 0.117188 7.050781 0.132812 6.625 0.132812 C 5.792969 0.125 5.089844 0.0742188 4.507812 -0.0078125 L 4.507812 -1.734375 L 6.992188 -1.734375 L 6.992188 -2.300781 L 4.507812 -2.300781 L 4.507812 -3.765625 L 6.625 -3.765625 L 6.625 -4.332031 Z M 7.574219 -5.957031 L 4.550781 -5.957031 C 4.433594 -6.300781 4.300781 -6.609375 4.167969 -6.882812 L 3.523438 -6.78125 C 3.675781 -6.53125 3.816406 -6.257812 3.941406 -5.957031 L 0.757812 -5.957031 L 0.757812 -4.140625 L 1.339844 -4.140625 L 1.339844 -5.40625 L 6.992188 -5.40625 L 6.992188 -4.183594 L 7.574219 -4.183594 Z "/>
</g>
<g id="glyph-0-1">
<path d="M 3.507812 -6.808594 L 2.941406 -6.550781 C 3.457031 -5.964844 3.925781 -5.300781 4.351562 -4.550781 L 4.890625 -4.824219 C 4.492188 -5.542969 4.03125 -6.207031 3.507812 -6.808594 Z M 6.40625 -6.417969 C 6.058594 -4.609375 5.324219 -3.125 4.207031 -1.964844 C 3.160156 -2.949219 2.339844 -4.183594 1.757812 -5.65625 L 1.207031 -5.351562 C 1.832031 -3.851562 2.683594 -2.582031 3.765625 -1.542969 C 2.867188 -0.757812 1.757812 -0.148438 0.441406 0.273438 L 0.773438 0.816406 C 2.140625 0.367188 3.300781 -0.273438 4.242188 -1.117188 C 5.191406 -0.316406 6.300781 0.324219 7.582031 0.808594 L 7.957031 0.25 C 6.707031 -0.183594 5.625 -0.785156 4.691406 -1.550781 C 5.859375 -2.757812 6.625 -4.332031 7 -6.28125 Z "/>
</g>
<g id="glyph-0-2">
<path d="M 1.441406 -1.167969 L 1.066406 -0.816406 C 1.375 -0.582031 1.683594 -0.308594 1.992188 0.0234375 C 2.257812 0.308594 2.5 0.589844 2.699219 0.875 L 3.117188 0.523438 C 2.917969 0.242188 2.675781 -0.0507812 2.398438 -0.332031 C 2.082031 -0.667969 1.757812 -0.941406 1.441406 -1.167969 Z "/>
</g>
<g id="glyph-0-3">
<path d="M 2.125 -3.640625 L 2.125 -3.109375 L 3.339844 -3.109375 L 3.339844 -2.242188 L 1.683594 -2.242188 C 1.734375 -2.691406 1.765625 -3.167969 1.765625 -3.667969 L 1.765625 -4.484375 L 3.339844 -4.484375 L 3.339844 -3.640625 Z M 1.601562 -1.691406 L 2.765625 -1.691406 L 2.765625 -0.117188 C 2.765625 0.0820312 2.667969 0.226562 2.464844 0.300781 L 2.632812 0.824219 C 3.5 0.648438 4.25 0.449219 4.882812 0.214844 L 4.765625 -0.332031 C 4.367188 -0.160156 3.898438 0 3.359375 0.132812 L 3.359375 -1.691406 L 4.492188 -1.691406 C 5.125 -0.367188 6.207031 0.492188 7.742188 0.875 L 8.03125 0.308594 C 7.398438 0.175781 6.851562 -0.0429688 6.367188 -0.351562 C 6.75 -0.566406 7.089844 -0.867188 7.390625 -1.234375 L 6.976562 -1.640625 C 6.632812 -1.207031 6.273438 -0.898438 5.898438 -0.699219 C 5.582031 -0.984375 5.308594 -1.308594 5.089844 -1.691406 L 7.765625 -1.691406 L 7.765625 -2.242188 L 6.183594 -2.242188 L 6.183594 -3.109375 L 7.492188 -3.109375 L 7.492188 -3.640625 L 6.183594 -3.640625 L 6.183594 -4.484375 L 7.339844 -4.484375 L 7.339844 -6.484375 L 1.160156 -6.484375 L 1.160156 -3.667969 C 1.148438 -2.007812 0.859375 -0.648438 0.292969 0.398438 L 0.773438 0.832031 C 1.160156 0.0820312 1.433594 -0.757812 1.601562 -1.691406 Z M 5.601562 -4.484375 L 5.601562 -3.640625 L 3.917969 -3.640625 L 3.917969 -4.484375 Z M 3.917969 -2.242188 L 3.917969 -3.109375 L 5.601562 -3.109375 L 5.601562 -2.242188 Z M 6.742188 -5.933594 L 6.742188 -5.023438 L 1.765625 -5.023438 L 1.765625 -5.933594 Z "/>
</g>
<g id="glyph-0-4">
<path d="M 0.933594 -6.308594 L 0.933594 -5.726562 L 2.449219 -5.726562 L 2.449219 -3.808594 C 2.449219 -3.726562 2.441406 -3.625 2.441406 -3.515625 L 0.484375 -3.515625 L 0.484375 -2.941406 L 2.410156 -2.941406 C 2.339844 -2.273438 2.226562 -1.707031 2.050781 -1.226562 C 1.785156 -0.589844 1.308594 -0.0820312 0.632812 0.300781 L 0.957031 0.816406 C 1.691406 0.433594 2.214844 -0.109375 2.535156 -0.808594 C 2.785156 -1.375 2.941406 -2.082031 3.015625 -2.941406 L 5.425781 -2.941406 L 5.425781 0.75 L 6.03125 0.75 L 6.03125 -2.941406 L 7.859375 -2.941406 L 7.859375 -3.515625 L 6.03125 -3.515625 L 6.03125 -5.726562 L 7.425781 -5.726562 L 7.425781 -6.308594 Z M 3.066406 -5.726562 L 5.425781 -5.726562 L 5.425781 -3.515625 L 3.058594 -3.515625 C 3.058594 -3.609375 3.066406 -3.707031 3.066406 -3.808594 Z "/>
</g>
<g id="glyph-0-5">
<path d="M 3.550781 -6.476562 L 3.550781 -4.300781 L 7.398438 -4.300781 L 7.398438 -6.476562 Z M 6.824219 -4.824219 L 4.125 -4.824219 L 4.125 -5.941406 L 6.824219 -5.941406 Z M 3.089844 -2.140625 L 3.089844 -1.582031 L 4.957031 -1.582031 C 4.875 -1.351562 4.773438 -1.132812 4.65625 -0.933594 C 4.300781 -0.417969 3.667969 0.0078125 2.765625 0.324219 L 3.089844 0.832031 C 4.023438 0.5 4.691406 0.0507812 5.109375 -0.523438 C 5.273438 -0.773438 5.40625 -1.050781 5.515625 -1.367188 C 5.957031 -0.484375 6.675781 0.242188 7.65625 0.808594 L 8.058594 0.339844 C 7.109375 -0.140625 6.40625 -0.785156 5.957031 -1.582031 L 7.957031 -1.582031 L 7.957031 -2.140625 L 5.699219 -2.140625 C 5.742188 -2.417969 5.765625 -2.714844 5.773438 -3.035156 L 5.773438 -3.066406 L 7.699219 -3.066406 L 7.699219 -3.625 L 3.308594 -3.625 L 3.308594 -3.066406 L 5.183594 -3.066406 L 5.183594 -3.035156 C 5.175781 -2.714844 5.148438 -2.425781 5.101562 -2.140625 Z M 1.359375 -6.726562 L 0.933594 -6.316406 C 1.535156 -5.867188 2 -5.441406 2.351562 -5.042969 L 2.757812 -5.457031 C 2.375 -5.882812 1.910156 -6.308594 1.359375 -6.726562 Z M 0.351562 -4.257812 L 0.351562 -3.683594 L 1.574219 -3.683594 L 1.574219 -0.359375 C 1.574219 -0.226562 1.507812 -0.109375 1.390625 0 L 1.625 0.535156 C 2.125 0.167969 2.601562 -0.257812 3.050781 -0.742188 L 2.890625 -1.375 C 2.625 -1.089844 2.382812 -0.839844 2.148438 -0.617188 L 2.148438 -4.257812 Z "/>
</g>
<g id="glyph-0-6">
<path d="M 0.875 -5.882812 L 0.875 -5.324219 L 3.90625 -5.324219 C 3.867188 -5.082031 3.816406 -4.839844 3.765625 -4.601562 L 1.359375 -4.601562 L 1.359375 -4.042969 L 3.609375 -4.042969 C 3.523438 -3.800781 3.433594 -3.566406 3.324219 -3.332031 L 0.632812 -3.332031 L 0.632812 -2.765625 L 3.035156 -2.765625 C 3 -2.707031 2.957031 -2.648438 2.925781 -2.582031 C 2.339844 -1.699219 1.464844 -0.933594 0.300781 -0.300781 L 0.699219 0.214844 C 1.5 -0.265625 2.167969 -0.800781 2.707031 -1.375 L 4.339844 -1.375 L 4.339844 -0.0351562 L 1.582031 -0.0351562 L 1.582031 0.550781 L 7.765625 0.550781 L 7.765625 -0.0351562 L 4.949219 -0.0351562 L 4.949219 -1.375 L 7.25 -1.375 L 7.25 -1.957031 L 3.199219 -1.957031 C 3.265625 -2.050781 3.332031 -2.140625 3.398438 -2.242188 C 3.5 -2.410156 3.589844 -2.582031 3.691406 -2.765625 L 7.773438 -2.765625 L 7.773438 -3.332031 L 3.949219 -3.332031 C 4.042969 -3.558594 4.125 -3.792969 4.207031 -4.042969 L 7.050781 -4.042969 L 7.050781 -4.601562 L 4.367188 -4.601562 C 4.425781 -4.832031 4.476562 -5.074219 4.523438 -5.324219 L 7.492188 -5.324219 L 7.492188 -5.882812 L 5.839844 -5.882812 C 6.015625 -6.167969 6.148438 -6.464844 6.242188 -6.792969 L 5.617188 -6.875 C 5.53125 -6.53125 5.398438 -6.199219 5.226562 -5.882812 L 3.292969 -5.882812 C 3.160156 -6.242188 3.015625 -6.558594 2.867188 -6.839844 L 2.25 -6.742188 C 2.410156 -6.484375 2.558594 -6.199219 2.691406 -5.882812 Z "/>
</g>
<g id="glyph-0-7">
<path d="M 1.882812 -6.839844 L 1.492188 -3.183594 L 6.234375 -3.183594 C 6.234375 -1.601562 6.132812 -0.632812 5.941406 -0.292969 C 5.757812 0.0234375 5.191406 0.183594 4.25 0.183594 C 4.082031 0.183594 3.800781 0.160156 3.390625 0.125 L 3.550781 0.675781 C 3.832031 0.691406 4.109375 0.707031 4.375 0.707031 C 5.390625 0.707031 6.058594 0.535156 6.367188 0.191406 C 6.683594 -0.167969 6.839844 -1.476562 6.839844 -3.742188 L 2.160156 -3.742188 L 2.300781 -5.101562 L 7.40625 -5.101562 L 7.40625 -5.675781 L 2.359375 -5.675781 L 2.476562 -6.792969 Z M 0.417969 -1.839844 L 0.417969 -1.265625 L 5.125 -1.265625 L 5.125 -1.839844 Z "/>
</g>
<g id="glyph-0-8">
<path d="M 1.859375 -0.109375 L 1.859375 0.476562 L 7.742188 0.476562 L 7.742188 -0.109375 L 5.984375 -0.109375 C 6.5 -1.339844 6.925781 -2.757812 7.273438 -4.339844 L 6.683594 -4.5 C 6.300781 -2.75 5.851562 -1.292969 5.332031 -0.109375 Z M 2.765625 -4.089844 L 2.242188 -3.925781 C 2.589844 -2.957031 2.875 -1.941406 3.101562 -0.890625 L 3.667969 -1.035156 C 3.398438 -2.183594 3.101562 -3.207031 2.765625 -4.089844 Z M 4.375 -4.683594 L 3.851562 -4.515625 C 4.148438 -3.515625 4.390625 -2.476562 4.574219 -1.390625 L 5.148438 -1.523438 C 4.917969 -2.707031 4.65625 -3.765625 4.375 -4.683594 Z M 4.382812 -6.875 L 3.726562 -6.757812 C 3.890625 -6.523438 4.042969 -6.273438 4.175781 -6.007812 L 1.082031 -6.007812 L 1.082031 -3.566406 C 1.066406 -1.875 0.816406 -0.558594 0.351562 0.390625 L 0.839844 0.832031 C 1.382812 -0.265625 1.667969 -1.734375 1.699219 -3.566406 L 1.699219 -5.425781 L 7.875 -5.425781 L 7.875 -6.007812 L 4.824219 -6.007812 C 4.691406 -6.324219 4.542969 -6.617188 4.382812 -6.875 Z "/>
</g>
<g id="glyph-0-9">
<path d="M 1.773438 -3.898438 L 3.890625 -3.898438 L 3.890625 -2.441406 L 1.773438 -2.441406 Z M 1.742188 -1.890625 L 3.890625 -1.890625 L 3.890625 0.550781 L 4.507812 0.550781 L 4.507812 -1.890625 L 6.773438 -1.890625 L 6.773438 -0.441406 C 6.773438 -0.0898438 6.617188 0.0820312 6.316406 0.0820312 C 6.03125 0.0820312 5.726562 0.0664062 5.390625 0.0507812 L 5.550781 0.640625 L 6.507812 0.640625 C 7.089844 0.640625 7.382812 0.351562 7.382812 -0.234375 L 7.382812 -6.476562 L 1.175781 -6.476562 L 1.175781 -2.476562 C 1.160156 -1.332031 0.882812 -0.390625 0.351562 0.351562 L 0.808594 0.757812 C 1.339844 0.0585938 1.648438 -0.824219 1.742188 -1.890625 Z M 6.773438 -2.441406 L 4.507812 -2.441406 L 4.507812 -3.898438 L 6.773438 -3.898438 Z M 6.773438 -4.457031 L 4.507812 -4.457031 L 4.507812 -5.890625 L 6.773438 -5.890625 Z M 3.890625 -5.890625 L 3.890625 -4.457031 L 1.773438 -4.457031 L 1.773438 -5.890625 Z "/>
</g>
</g>
</defs>
<g fill="rgb(100%, 100%, 100%)" fill-opacity="1">
<use xlink:href="#glyph-0-0" x="30" y="28.833008"/>
<use xlink:href="#glyph-0-1" x="38" y="28.833008"/>
<use xlink:href="#glyph-0-2" x="46" y="28.833008"/>
<use xlink:href="#glyph-0-3" x="54" y="28.833008"/>
<use xlink:href="#glyph-0-4" x="62" y="28.833008"/>
<use xlink:href="#glyph-0-2" x="70" y="28.833008"/>
<use xlink:href="#glyph-0-5" x="78" y="28.833008"/>
<use xlink:href="#glyph-0-6" x="86" y="28.833008"/>
<use xlink:href="#glyph-0-7" x="94" y="28.833008"/>
<use xlink:href="#glyph-0-8" x="102" y="28.833008"/>
<use xlink:href="#glyph-0-9" x="110" y="28.833008"/>
</g>
</svg>
