<?xml version="1.0" encoding="UTF-8"?>
<svg xmlns="http://www.w3.org/2000/svg" xmlns:xlink="http://www.w3.org/1999/xlink" width="854" height="480" viewBox="0 0 854 480">
<defs>
<g>
<g id="glyph-0-0">
<path d="M 3.601562 -2.363281 L 3.601562 -1.742188 L 1.167969 -1.742188 L 1.167969 0.421875 L 1.71875 0.421875 L 1.71875 -1.230469 L 3.601562 -1.230469 L 3.601562 0.792969 L 4.175781 0.792969 L 4.175781 -1.230469 L 6.097656 -1.230469 L 6.097656 -0.449219 C 6.097656 -0.25 5.980469 -0.140625 5.761719 -0.140625 L 5.171875 -0.164062 L 5.320312 0.375 L 5.941406 0.375 C 6.410156 0.375 6.648438 0.140625 6.648438 -0.328125 L 6.648438 -1.742188 L 4.175781 -1.742188 L 4.175781 -2.363281 L 5.902344 -2.363281 L 5.902344 -4.074219 L 1.890625 -4.074219 L 1.890625 -2.363281 Z M 3.601562 -6.394531 L 3.601562 -5.203125 L 2.472656 -5.203125 C 2.308594 -5.601562 2.125 -5.941406 1.921875 -6.230469 L 1.390625 -6.035156 C 1.59375 -5.777344 1.773438 -5.5 1.921875 -5.203125 L 0.652344 -5.203125 L 0.652344 -3.625 L 1.230469 -3.625 L 1.230469 -4.675781 L 6.546875 -4.675781 L 6.546875 -3.632812 L 7.125 -3.632812 L 7.125 -5.203125 L 5.753906 -5.203125 C 5.941406 -5.453125 6.128906 -5.746094 6.308594 -6.089844 L 5.785156 -6.285156 C 5.617188 -5.902344 5.40625 -5.546875 5.164062 -5.203125 L 4.175781 -5.203125 L 4.175781 -6.394531 Z M 5.367188 -2.839844 L 2.433594 -2.839844 L 2.433594 -3.601562 L 5.367188 -3.601562 Z "/>
</g>
<g id="glyph-0-1">
<path d="M 5.117188 -4.628906 L 6.269531 -4.628906 C 6.238281 -3.578125 6.074219 -2.660156 5.769531 -1.875 C 5.460938 -2.527344 5.210938 -3.3125 5.015625 -4.222656 Z M 5.515625 -1.3125 C 5.15625 -0.652344 4.683594 -0.117188 4.074219 0.304688 L 4.363281 0.769531 C 4.945312 0.351562 5.429688 -0.171875 5.800781 -0.792969 C 6.191406 -0.140625 6.65625 0.390625 7.203125 0.777344 L 7.503906 0.320312 C 6.945312 -0.0625 6.472656 -0.597656 6.066406 -1.296875 C 6.5 -2.214844 6.742188 -3.328125 6.78125 -4.628906 L 7.289062 -4.628906 L 7.289062 -5.164062 L 5.234375 -5.164062 C 5.296875 -5.507812 5.359375 -5.878906 5.40625 -6.277344 L 4.859375 -6.371094 C 4.707031 -4.890625 4.394531 -3.71875 3.933594 -2.847656 L 4.285156 -2.417969 C 4.449219 -2.699219 4.605469 -3.019531 4.746094 -3.375 C 4.953125 -2.597656 5.210938 -1.914062 5.515625 -1.3125 Z M 1.828125 -2.738281 C 1.773438 -2.582031 1.710938 -2.417969 1.640625 -2.246094 L 0.503906 -2.246094 L 0.503906 -1.757812 L 1.421875 -1.757812 C 1.269531 -1.445312 1.089844 -1.128906 0.886719 -0.785156 C 1.269531 -0.644531 1.625 -0.496094 1.96875 -0.351562 C 1.515625 -0.09375 0.964844 0.117188 0.328125 0.289062 L 0.589844 0.753906 C 1.367188 0.535156 2.015625 0.25 2.527344 -0.109375 C 2.988281 0.09375 3.382812 0.304688 3.726562 0.503906 L 4.027344 0.0703125 C 3.6875 -0.117188 3.328125 -0.289062 2.957031 -0.457031 C 3.359375 -0.832031 3.648438 -1.277344 3.820312 -1.789062 L 3.820312 -2.246094 L 2.191406 -2.246094 C 2.238281 -2.386719 2.292969 -2.527344 2.347656 -2.675781 Z M 2.441406 -0.675781 C 2.160156 -0.792969 1.867188 -0.902344 1.554688 -1.011719 C 1.710938 -1.246094 1.851562 -1.492188 1.976562 -1.757812 L 3.3125 -1.757812 C 3.125 -1.351562 2.832031 -0.988281 2.441406 -0.675781 Z M 1.121094 -6.207031 L 0.675781 -6.058594 C 0.863281 -5.761719 1.035156 -5.429688 1.199219 -5.046875 L 1.601562 -5.234375 C 1.460938 -5.578125 1.304688 -5.902344 1.121094 -6.207031 Z M 3.484375 -6.230469 C 3.34375 -5.902344 3.140625 -5.578125 2.894531 -5.242188 L 3.289062 -5.039062 C 3.539062 -5.367188 3.734375 -5.699219 3.890625 -6.042969 Z M 0.519531 -4.859375 L 0.519531 -4.371094 L 1.625 -4.371094 C 1.390625 -3.941406 0.972656 -3.554688 0.375 -3.203125 L 0.644531 -2.753906 C 1.3125 -3.203125 1.78125 -3.734375 2.039062 -4.347656 L 2.039062 -2.871094 L 2.558594 -2.871094 L 2.558594 -3.882812 C 2.839844 -3.695312 3.171875 -3.445312 3.5625 -3.132812 L 3.851562 -3.570312 C 3.414062 -3.835938 2.980469 -4.074219 2.558594 -4.285156 L 2.558594 -4.371094 L 3.972656 -4.371094 L 3.972656 -4.859375 L 2.558594 -4.859375 L 2.558594 -6.347656 L 2.039062 -6.347656 L 2.039062 -4.859375 Z "/>
</g>
<g id="glyph-0-2">
<path d="M 1.351562 -5.046875 L 1.351562 -1.351562 C 1.027344 -1.261719 0.691406 -1.175781 0.34375 -1.089844 L 0.503906 -0.535156 C 1.40625 -0.777344 2.199219 -1.042969 2.886719 -1.328125 L 2.886719 -1.890625 C 2.582031 -1.765625 2.261719 -1.648438 1.929688 -1.53125 L 1.929688 -5.046875 L 2.832031 -5.046875 L 2.832031 -5.59375 L 0.429688 -5.59375 L 0.429688 -5.046875 Z M 3.125 -6.019531 L 3.125 -5.476562 L 5.023438 -5.476562 C 4.984375 -5.1875 4.929688 -4.90625 4.851562 -4.644531 L 3.484375 -4.644531 L 3.484375 -0.988281 L 4.019531 -0.988281 L 4.019531 -4.128906 L 6.515625 -4.128906 L 6.515625 -0.988281 L 7.0625 -0.988281 L 7.0625 -4.644531 L 5.414062 -4.644531 C 5.476562 -4.90625 5.53125 -5.179688 5.578125 -5.476562 L 7.433594 -5.476562 L 7.433594 -6.019531 Z M 5.902344 -0.972656 L 5.53125 -0.613281 C 6.199219 -0.101562 6.726562 0.382812 7.117188 0.832031 L 7.519531 0.429688 C 7.085938 -0.0390625 6.539062 -0.503906 5.902344 -0.972656 Z M 4.953125 -3.632812 L 4.953125 -2.292969 C 4.929688 -1.617188 4.753906 -1.066406 4.425781 -0.644531 C 4.066406 -0.242188 3.429688 0.0859375 2.527344 0.328125 L 2.832031 0.808594 C 3.765625 0.542969 4.433594 0.179688 4.84375 -0.28125 C 5.265625 -0.785156 5.484375 -1.453125 5.515625 -2.292969 L 5.515625 -3.632812 Z "/>
</g>
<g id="glyph-0-3">
<path d="M 1.554688 -6.089844 L 1.554688 -3.390625 L 6.285156 -3.390625 L 6.285156 -6.089844 Z M 5.730469 -3.867188 L 2.109375 -3.867188 L 2.109375 -4.503906 L 5.730469 -4.503906 Z M 2.109375 -4.960938 L 2.109375 -5.609375 L 5.730469 -5.609375 L 5.730469 -4.960938 Z M 3.695312 -2.300781 L 3.695312 0.0234375 C 3.53125 -0.0078125 3.390625 -0.046875 3.265625 -0.0859375 C 2.863281 -0.234375 2.488281 -0.574219 2.160156 -1.121094 C 2.261719 -1.375 2.347656 -1.648438 2.425781 -1.9375 L 1.898438 -2.03125 C 1.640625 -1.058594 1.152344 -0.28125 0.433594 0.296875 L 0.800781 0.753906 C 1.269531 0.375 1.65625 -0.101562 1.960938 -0.675781 C 2.269531 -0.164062 2.628906 0.179688 3.023438 0.359375 C 3.484375 0.550781 4.355469 0.652344 5.636719 0.652344 C 6.082031 0.660156 6.578125 0.667969 7.140625 0.667969 L 7.296875 0.140625 C 6.835938 0.15625 6.269531 0.164062 5.601562 0.164062 C 5.085938 0.164062 4.636719 0.140625 4.261719 0.109375 L 4.261719 -0.925781 L 6.5 -0.925781 L 6.5 -1.421875 L 4.261719 -1.421875 L 4.261719 -2.300781 L 7.335938 -2.300781 L 7.335938 -2.816406 L 0.449219 -2.816406 L 0.449219 -2.300781 Z "/>
</g>
<g id="glyph-0-4">
<rect x="0" y="0" width="0" height="0" mask="url(#mask-0)"/>
</g>
<g id="glyph-0-5">
<path d="M 2.09375 -5.554688 C 1.75 -5.554688 1.484375 -5.460938 1.304688 -5.265625 C 1.136719 -5.078125 1.050781 -4.820312 1.050781 -4.480469 L 1.050781 -4.019531 L 0.0390625 -4.019531 L 0.0390625 -3.5 L 1.050781 -3.5 L 1.050781 0 L 1.671875 0 L 1.671875 -3.5 L 2.808594 -3.5 L 2.808594 -4.019531 L 1.671875 -4.019531 L 1.671875 -4.464844 C 1.671875 -4.660156 1.710938 -4.796875 1.789062 -4.882812 C 1.867188 -4.976562 2 -5.015625 2.167969 -5.015625 L 2.863281 -5.015625 L 2.863281 -5.554688 Z "/>
</g>
<g id="glyph-0-6">
<path d="M 2.792969 -2.730469 L 2.792969 -2.183594 L 4.574219 -2.183594 L 4.574219 -0.0390625 L 2.472656 -0.0390625 L 2.472656 0.511719 L 7.347656 0.511719 L 7.347656 -0.0390625 L 5.140625 -0.0390625 L 5.140625 -2.183594 L 7 -2.183594 L 7 -2.730469 L 5.140625 -2.730469 L 5.140625 -4.175781 L 4.574219 -4.175781 L 4.574219 -2.730469 Z M 1.539062 -2.386719 L 1.539062 0.800781 L 2.09375 0.800781 L 2.09375 -3.023438 C 2.511719 -3.554688 2.878906 -4.128906 3.179688 -4.746094 L 7.34375 -4.746094 L 7.34375 -5.296875 L 3.429688 -5.296875 C 3.570312 -5.628906 3.6875 -5.980469 3.796875 -6.339844 L 3.210938 -6.410156 C 3.101562 -6.027344 2.964844 -5.652344 2.808594 -5.296875 L 0.542969 -5.296875 L 0.542969 -4.746094 L 2.542969 -4.746094 C 2 -3.710938 1.246094 -2.792969 0.273438 -1.992188 L 0.621094 -1.53125 C 0.949219 -1.804688 1.253906 -2.09375 1.539062 -2.386719 Z "/>
</g>
<g id="glyph-0-7">
<path d="M 2.230469 -4.128906 C 1.75 -4.128906 1.367188 -4.035156 1.074219 -3.851562 C 0.746094 -3.648438 0.535156 -3.328125 0.449219 -2.910156 L 1.066406 -2.863281 C 1.128906 -3.117188 1.261719 -3.3125 1.46875 -3.4375 C 1.65625 -3.5625 1.898438 -3.617188 2.191406 -3.617188 C 2.894531 -3.617188 3.242188 -3.28125 3.242188 -2.605469 L 3.242188 -2.394531 L 2.277344 -2.378906 C 1.671875 -2.371094 1.207031 -2.253906 0.878906 -2.039062 C 0.503906 -1.804688 0.328125 -1.460938 0.328125 -1.003906 C 0.328125 -0.675781 0.449219 -0.40625 0.699219 -0.195312 C 0.941406 0.0078125 1.261719 0.109375 1.664062 0.109375 C 2.039062 0.109375 2.371094 0.0234375 2.667969 -0.140625 C 2.917969 -0.28125 3.125 -0.457031 3.28125 -0.675781 L 3.28125 0 L 3.867188 0 L 3.867188 -2.582031 C 3.867188 -3.046875 3.742188 -3.414062 3.507812 -3.679688 C 3.226562 -3.980469 2.808594 -4.128906 2.230469 -4.128906 Z M 3.242188 -1.929688 L 3.242188 -1.585938 C 3.242188 -1.277344 3.09375 -0.996094 2.808594 -0.753906 C 2.511719 -0.503906 2.175781 -0.382812 1.796875 -0.382812 C 1.546875 -0.382812 1.34375 -0.441406 1.191406 -0.558594 C 1.035156 -0.683594 0.964844 -0.832031 0.964844 -1.019531 C 0.964844 -1.601562 1.414062 -1.898438 2.316406 -1.914062 Z "/>
</g>
<g id="glyph-0-8">
<path d="M 3.484375 -6.339844 L 3.484375 -4.066406 L 1.367188 -4.066406 L 1.367188 -1.570312 L 6.515625 -1.570312 L 6.515625 -4.066406 L 4.035156 -4.066406 L 4.035156 -5.054688 L 7.054688 -5.054688 L 7.054688 -5.585938 L 4.035156 -5.585938 L 4.035156 -6.339844 Z M 5.957031 -2.09375 L 1.929688 -2.09375 L 1.929688 -3.539062 L 5.957031 -3.539062 Z M 1.351562 -1.230469 C 1.074219 -0.589844 0.738281 -0.0390625 0.351562 0.421875 L 0.808594 0.753906 C 1.199219 0.257812 1.53125 -0.328125 1.828125 -1.003906 Z M 3.046875 -1.003906 L 2.527344 -0.894531 C 2.675781 -0.40625 2.800781 0.15625 2.910156 0.792969 L 3.46875 0.667969 C 3.34375 0.0703125 3.203125 -0.488281 3.046875 -1.003906 Z M 4.675781 -1.082031 L 4.144531 -0.972656 C 4.378906 -0.464844 4.574219 0.117188 4.730469 0.777344 L 5.28125 0.652344 C 5.109375 0.03125 4.90625 -0.550781 4.675781 -1.082031 Z M 6.269531 -1.238281 L 5.816406 -0.949219 C 6.292969 -0.3125 6.664062 0.265625 6.9375 0.792969 L 7.402344 0.464844 C 7.140625 -0.015625 6.765625 -0.582031 6.269531 -1.238281 Z "/>
</g>
<g id="glyph-0-9">
<path d="M 3.140625 -5.007812 L 1.890625 -5.007812 C 2.046875 -5.398438 2.160156 -5.824219 2.253906 -6.285156 L 1.695312 -6.363281 C 1.625 -5.894531 1.515625 -5.445312 1.359375 -5.007812 L 0.636719 -5.007812 L 0.636719 0.519531 L 1.183594 0.519531 L 1.183594 -0.148438 L 2.597656 -0.148438 L 2.597656 0.296875 L 3.140625 0.296875 Z M 1.183594 -0.667969 L 1.183594 -2.371094 L 2.597656 -2.371094 L 2.597656 -0.667969 Z M 1.183594 -2.878906 L 1.183594 -4.480469 L 2.597656 -4.480469 L 2.597656 -2.878906 Z M 4.496094 -3.203125 L 4.042969 -2.925781 C 4.582031 -2.285156 5.007812 -1.710938 5.328125 -1.199219 L 5.769531 -1.507812 C 5.476562 -1.992188 5.054688 -2.558594 4.496094 -3.203125 Z M 7.164062 -5 L 4.683594 -5 C 4.820312 -5.40625 4.929688 -5.839844 5.023438 -6.300781 L 4.472656 -6.371094 C 4.269531 -5.265625 3.902344 -4.332031 3.359375 -3.570312 L 3.695312 -3.125 C 3.996094 -3.523438 4.253906 -3.964844 4.472656 -4.457031 L 6.609375 -4.457031 C 6.59375 -2.214844 6.5625 -0.871094 6.515625 -0.433594 C 6.457031 -0.0390625 6.246094 0.164062 5.878906 0.164062 C 5.636719 0.164062 5.359375 0.15625 5.03125 0.140625 L 5.164062 0.652344 C 5.539062 0.667969 5.800781 0.683594 5.957031 0.683594 C 6.609375 0.683594 6.96875 0.382812 7.046875 -0.210938 C 7.125 -0.816406 7.164062 -2.417969 7.164062 -5 Z "/>
</g>
<g id="glyph-0-10">
<path d="M 1.640625 -0.949219 C 2.386719 -1.421875 3.085938 -1.976562 3.75 -2.605469 L 3.75 -1.398438 C 3.75 -1.152344 3.640625 -1.027344 3.429688 -1.027344 C 3.195312 -1.027344 2.980469 -1.035156 2.785156 -1.042969 L 2.925781 -0.519531 L 3.632812 -0.519531 C 4.050781 -0.519531 4.269531 -0.753906 4.269531 -1.207031 L 4.269531 -2.511719 C 4.746094 -2.148438 5.320312 -1.640625 5.996094 -0.988281 L 6.324219 -1.476562 C 5.621094 -2.078125 4.9375 -2.605469 4.269531 -3.070312 L 4.269531 -4.261719 C 5.03125 -4.683594 5.722656 -5.101562 6.347656 -5.53125 L 6.347656 -6.058594 L 1.53125 -6.058594 L 1.53125 -5.53125 L 5.507812 -5.53125 C 5.117188 -5.28125 4.535156 -4.960938 3.75 -4.574219 L 3.75 -3.242188 C 3.019531 -2.542969 2.253906 -1.960938 1.445312 -1.492188 Z M 6.480469 -4.644531 L 6.480469 -0.15625 L 1.296875 -0.15625 L 1.296875 -4.652344 L 0.761719 -4.652344 L 0.761719 0.359375 L 6.480469 0.359375 L 6.480469 0.792969 L 7.015625 0.792969 L 7.015625 -4.644531 Z M 2.140625 -4.402344 L 1.726562 -4.144531 C 2.175781 -3.71875 2.542969 -3.328125 2.808594 -2.972656 L 3.234375 -3.265625 C 2.980469 -3.59375 2.613281 -3.964844 2.140625 -4.402344 Z M 5.675781 -4.457031 C 5.382812 -3.980469 5.023438 -3.570312 4.621094 -3.226562 L 5.023438 -2.941406 C 5.445312 -3.304688 5.816406 -3.742188 6.128906 -4.238281 Z "/>
</g>
<g id="glyph-0-11">
<path d="M 4.789062 -6.386719 C 4.773438 -6.136719 4.753906 -5.878906 4.730469 -5.621094 L 2.683594 -5.621094 L 2.683594 -5.109375 L 4.675781 -5.109375 C 4.644531 -4.882812 4.605469 -4.660156 4.574219 -4.433594 L 3.148438 -4.433594 L 3.148438 0.03125 L 2.347656 0.03125 L 2.347656 0.542969 L 7.441406 0.542969 L 7.441406 0.03125 L 6.703125 0.03125 L 6.703125 -4.433594 L 5.125 -4.433594 C 5.15625 -4.652344 5.195312 -4.875 5.226562 -5.109375 L 7.21875 -5.109375 L 7.21875 -5.621094 L 5.289062 -5.621094 C 5.304688 -5.839844 5.328125 -6.074219 5.34375 -6.308594 Z M 3.6875 0.03125 L 3.6875 -0.652344 L 6.167969 -0.652344 L 6.167969 0.03125 Z M 3.6875 -1.105469 L 3.6875 -1.757812 L 6.167969 -1.757812 L 6.167969 -1.105469 Z M 3.6875 -2.207031 L 3.6875 -2.847656 L 6.167969 -2.847656 L 6.167969 -2.207031 Z M 3.6875 -3.296875 L 3.6875 -3.925781 L 6.167969 -3.925781 L 6.167969 -3.296875 Z M 1.390625 -3.742188 L 1.390625 0.777344 L 1.9375 0.777344 L 1.9375 -4.699219 C 2.160156 -5.15625 2.355469 -5.636719 2.511719 -6.144531 L 2.007812 -6.378906 C 1.664062 -5.179688 1.105469 -4.113281 0.335938 -3.1875 L 0.519531 -2.597656 C 0.839844 -2.957031 1.128906 -3.335938 1.390625 -3.742188 Z "/>
</g>
<g id="glyph-0-12">
<path d="M 1.945312 -1.105469 C 1.664062 -1.105469 1.421875 -1.011719 1.230469 -0.824219 C 1.027344 -0.636719 0.933594 -0.40625 0.933594 -0.125 C 0.933594 0.15625 1.027344 0.390625 1.230469 0.574219 C 1.421875 0.753906 1.664062 0.847656 1.945312 0.847656 C 2.222656 0.847656 2.457031 0.753906 2.660156 0.566406 C 2.855469 0.382812 2.957031 0.148438 2.957031 -0.125 C 2.957031 -0.40625 2.855469 -0.636719 2.660156 -0.824219 C 2.457031 -1.011719 2.222656 -1.105469 1.945312 -1.105469 Z M 1.945312 -0.699219 C 2.101562 -0.699219 2.238281 -0.644531 2.355469 -0.527344 C 2.472656 -0.421875 2.535156 -0.289062 2.535156 -0.125 C 2.535156 0.03125 2.472656 0.164062 2.355469 0.273438 C 2.238281 0.382812 2.101562 0.441406 1.945312 0.441406 C 1.78125 0.441406 1.640625 0.382812 1.53125 0.273438 C 1.40625 0.164062 1.351562 0.03125 1.351562 -0.125 C 1.351562 -0.289062 1.40625 -0.421875 1.53125 -0.527344 C 1.640625 -0.644531 1.78125 -0.699219 1.945312 -0.699219 Z "/>
</g>
</g>
<image id="source-196" x="0" y="0" width="0" height="0"/>
<mask id="mask-0">
<use xlink:href="#source-196"/>
</mask>
</defs>
<g fill="rgb(100%, 100%, 100%)" fill-opacity="1">
<use xlink:href="#glyph-0-0" x="30" y="28.244141"/>
<use xlink:href="#glyph-0-1" x="38" y="28.244141"/>
<use xlink:href="#glyph-0-2" x="46" y="28.244141"/>
<use xlink:href="#glyph-0-3" x="54" y="28.244141"/>
<use xlink:href="#glyph-0-4" x="62" y="28.244141"/>
</g>
<g fill="rgb(100%, 100%, 100%)" fill-opacity="1">
<use xlink:href="#glyph-0-5" x="65" y="28.244141"/>
<use xlink:href="#glyph-0-4" x="68" y="28.244141"/>
</g>
<g fill="rgb(100%, 100%, 100%)" fill-opacity="1">
<use xlink:href="#glyph-0-6" x="71" y="28.244141"/>
<use xlink:href="#glyph-0-4" x="79" y="28.244141"/>
</g>
<g fill="rgb(100%, 100%, 100%)" fill-opacity="1">
<use xlink:href="#glyph-0-7" x="82" y="28.244141"/>
<use xlink:href="#glyph-0-4" x="86" y="28.244141"/>
</g>
<g fill="rgb(100%, 100%, 100%)" fill-opacity="1">
<use xlink:href="#glyph-0-8" x="89" y="28.244141"/>
<use xlink:href="#glyph-0-9" x="97" y="28.244141"/>
<use xlink:href="#glyph-0-10" x="105" y="28.244141"/>
<use xlink:href="#glyph-0-1" x="113" y="28.244141"/>
<use xlink:href="#glyph-0-11" x="121" y="28.244141"/>
<use xlink:href="#glyph-0-12" x="129" y="28.244141"/>
</g>
</svg>
