<?xml version="1.0" encoding="UTF-8"?>
<svg xmlns="http://www.w3.org/2000/svg" xmlns:xlink="http://www.w3.org/1999/xlink" width="854" height="480" viewBox="0 0 854 480">
<defs>
<g>
<g id="glyph-0-0">
<path d="M 2.84375 -9 C 2.84375 -6.867188 2.710938 -5.109375 2.445312 -3.734375 C 2.109375 -2.101562 1.410156 -0.746094 0.367188 0.332031 L 0.921875 1.011719 C 2.121094 -0.1875 2.890625 -1.710938 3.234375 -3.578125 C 3.945312 -2.722656 4.53125 -1.910156 4.976562 -1.132812 L 5.578125 -1.746094 C 4.976562 -2.65625 4.253906 -3.578125 3.386719 -4.5 C 3.566406 -5.777344 3.65625 -7.277344 3.65625 -9 Z M 7.1875 -9.011719 C 7.175781 -6.855469 7.03125 -5.089844 6.765625 -3.699219 C 6.410156 -2.054688 5.675781 -0.6875 4.578125 0.398438 L 5.132812 1.078125 C 6.398438 -0.15625 7.222656 -1.722656 7.578125 -3.632812 C 7.597656 -3.746094 7.609375 -3.855469 7.632812 -3.964844 C 8.210938 -2 9.042969 -0.34375 10.132812 1 L 10.710938 0.3125 C 9.355469 -1.210938 8.398438 -3.289062 7.867188 -5.933594 C 7.945312 -6.867188 7.988281 -7.898438 7.988281 -9.011719 Z "/>
</g>
<g id="glyph-0-1">
<path d="M 3.667969 -3.246094 L 3.667969 -0.445312 L 7.589844 -0.445312 L 7.589844 -3.246094 Z M 6.867188 -1.121094 L 4.386719 -1.121094 L 4.386719 -2.578125 L 6.867188 -2.578125 Z M 8.722656 -7.886719 L 8.722656 -6.667969 L 2.632812 -6.667969 L 2.632812 -7.886719 Z M 2.632812 -5.945312 L 9.5 -5.945312 L 9.5 -8.644531 L 1.855469 -8.644531 L 1.855469 -4.289062 C 1.84375 -2.332031 1.390625 -0.734375 0.476562 0.5 L 1.101562 1.054688 C 2.101562 -0.421875 2.609375 -2.1875 2.632812 -4.246094 L 9.265625 -4.246094 C 9.242188 -1.964844 9.210938 -0.609375 9.144531 -0.167969 C 9.066406 0.1875 8.820312 0.367188 8.421875 0.367188 C 8 0.367188 7.5 0.355469 6.910156 0.332031 L 7.089844 1.011719 C 7.765625 1.035156 8.242188 1.042969 8.523438 1.042969 C 9.320312 1.042969 9.777344 0.734375 9.878906 0.121094 C 9.988281 -0.523438 10.042969 -2.222656 10.042969 -4.964844 L 2.632812 -4.964844 Z "/>
</g>
<g id="glyph-0-2">
<path d="M 2.089844 -6.8125 L 1.355469 -6.542969 C 1.632812 -6.054688 1.867188 -5.523438 2.066406 -4.945312 L 0.566406 -4.945312 L 0.566406 -4.167969 L 6.132812 -4.167969 L 6.132812 -4.945312 L 4.789062 -4.945312 C 5.078125 -5.445312 5.332031 -6.011719 5.566406 -6.644531 L 4.820312 -6.898438 C 4.601562 -6.210938 4.320312 -5.554688 4 -4.945312 L 2.832031 -4.945312 C 2.609375 -5.675781 2.355469 -6.300781 2.089844 -6.8125 Z M 6.644531 -8.609375 L 6.644531 1.089844 L 7.421875 1.089844 L 7.421875 -7.878906 L 9.410156 -7.878906 C 9.054688 -6.675781 8.6875 -5.632812 8.320312 -4.753906 C 9.1875 -3.6875 9.632812 -2.832031 9.644531 -2.175781 C 9.632812 -1.777344 9.578125 -1.511719 9.464844 -1.367188 C 9.355469 -1.234375 9.097656 -1.15625 8.699219 -1.132812 C 8.488281 -1.132812 8.234375 -1.15625 7.921875 -1.175781 L 8.175781 -0.332031 C 9.089844 -0.332031 9.699219 -0.476562 10.011719 -0.746094 C 10.300781 -1.011719 10.445312 -1.488281 10.445312 -2.175781 C 10.433594 -2.84375 10.011719 -3.710938 9.175781 -4.753906 C 9.578125 -5.753906 9.945312 -6.84375 10.289062 -8.011719 L 10.289062 -8.609375 Z M 0.777344 -8 L 0.777344 -7.222656 L 6.054688 -7.222656 L 6.054688 -8 L 3.789062 -8 C 3.667969 -8.421875 3.542969 -8.808594 3.421875 -9.144531 L 2.601562 -9 C 2.746094 -8.699219 2.878906 -8.367188 3.011719 -8 Z M 5.621094 -3.15625 L 1.199219 -3.15625 L 1.199219 1.035156 L 1.988281 1.035156 L 1.988281 0.410156 L 4.832031 0.410156 L 4.832031 1.035156 L 5.621094 1.035156 Z M 1.988281 -0.34375 L 1.988281 -2.398438 L 4.832031 -2.398438 L 4.832031 -0.34375 Z "/>
</g>
<g id="glyph-0-3">
<path d="M 1.710938 -5.109375 L 1.710938 1.132812 L 2.5 1.132812 L 2.5 -6.421875 C 2.890625 -7.175781 3.210938 -7.976562 3.476562 -8.832031 L 2.734375 -9.175781 C 2.234375 -7.445312 1.445312 -5.898438 0.355469 -4.554688 L 0.609375 -3.699219 C 1.011719 -4.144531 1.378906 -4.621094 1.710938 -5.109375 Z M 3.433594 -7.609375 L 3.433594 -6.855469 L 10.664062 -6.855469 L 10.664062 -7.609375 L 7.167969 -7.609375 L 7.589844 -7.765625 C 7.453125 -8.175781 7.277344 -8.621094 7.042969 -9.109375 L 6.277344 -8.898438 C 6.5 -8.476562 6.6875 -8.054688 6.855469 -7.609375 Z M 4.457031 -5.957031 L 4.457031 -5.234375 L 9.710938 -5.234375 L 9.710938 -5.957031 Z M 4.457031 -4.386719 L 4.457031 -3.65625 L 9.710938 -3.65625 L 9.710938 -4.386719 Z M 9.910156 -2.746094 L 4.246094 -2.746094 L 4.246094 1.109375 L 5.023438 1.109375 L 5.023438 0.511719 L 9.132812 0.511719 L 9.132812 1.109375 L 9.910156 1.109375 Z M 5.023438 -0.246094 L 5.023438 -2 L 9.132812 -2 L 9.132812 -0.246094 Z "/>
</g>
<g id="glyph-0-4">
<path d="M 2.121094 -8.253906 L 2.121094 -2.820312 L 9.078125 -2.820312 L 9.078125 -8.253906 L 5.410156 -8.253906 C 5.542969 -8.5 5.65625 -8.753906 5.742188 -9.03125 L 4.910156 -9.144531 C 4.832031 -8.832031 4.722656 -8.542969 4.566406 -8.253906 Z M 8.300781 -3.511719 L 2.898438 -3.511719 L 2.898438 -4.445312 L 8.300781 -4.445312 Z M 2.898438 -5.089844 L 2.898438 -6 L 8.300781 -6 L 8.300781 -5.089844 Z M 2.898438 -6.644531 L 2.898438 -7.554688 L 8.300781 -7.554688 L 8.300781 -6.644531 Z M 1.566406 -2.066406 C 1.355469 -1.199219 1.011719 -0.398438 0.535156 0.3125 L 1.210938 0.746094 C 1.6875 -0.0117188 2.054688 -0.890625 2.320312 -1.910156 Z M 6.921875 0.945312 C 7.34375 0.945312 7.667969 0.855469 7.867188 0.6875 C 8.089844 0.476562 8.242188 -0.0898438 8.332031 -1.023438 L 7.566406 -1.265625 C 7.523438 -0.542969 7.421875 -0.109375 7.289062 0.0429688 C 7.199219 0.15625 7.023438 0.222656 6.765625 0.222656 L 4.300781 0.222656 C 4.042969 0.222656 3.921875 0.0898438 3.921875 -0.167969 L 3.921875 -2.121094 L 3.109375 -2.121094 L 3.109375 0 C 3.109375 0.621094 3.421875 0.945312 4.066406 0.945312 Z M 5.433594 -2.523438 L 4.84375 -2.15625 C 5.421875 -1.578125 5.867188 -1.054688 6.199219 -0.578125 L 6.8125 -1 C 6.488281 -1.433594 6.03125 -1.945312 5.433594 -2.523438 Z M 9.023438 -2.265625 L 8.398438 -1.878906 C 9.078125 -1 9.621094 -0.199219 10.023438 0.523438 L 10.65625 0.078125 C 10.277344 -0.589844 9.734375 -1.378906 9.023438 -2.265625 Z "/>
</g>
<g id="glyph-0-5">
<path d="M 2.066406 -1.320312 C 1.84375 -1.320312 1.675781 -1.265625 1.542969 -1.132812 C 1.410156 -1.011719 1.34375 -0.84375 1.34375 -0.632812 C 1.34375 -0.445312 1.410156 -0.277344 1.542969 -0.144531 C 1.675781 -0.0117188 1.832031 0.0546875 2.023438 0.0546875 C 2.132812 0.0546875 2.222656 0.0351562 2.265625 0.0117188 C 2.265625 0.277344 2.175781 0.523438 2.023438 0.753906 C 1.84375 0.976562 1.609375 1.144531 1.320312 1.246094 L 1.320312 1.789062 C 1.789062 1.667969 2.175781 1.421875 2.464844 1.066406 C 2.753906 0.6875 2.898438 0.253906 2.898438 -0.234375 C 2.898438 -0.554688 2.820312 -0.8125 2.675781 -1.011719 C 2.523438 -1.222656 2.3125 -1.320312 2.066406 -1.320312 Z "/>
</g>
<g id="glyph-0-6">
<path d="M 7.597656 -5.199219 L 7.597656 -0.523438 L 8.378906 -0.523438 L 8.378906 -5.199219 L 10.308594 -5.199219 L 10.308594 -5.964844 L 5.445312 -5.964844 L 5.445312 -7.699219 C 7.011719 -7.753906 8.433594 -7.953125 9.699219 -8.289062 L 9.320312 -8.988281 C 7.945312 -8.609375 6.410156 -8.410156 4.699219 -8.378906 L 4.699219 -5.5 C 4.644531 -3.765625 4.277344 -2.410156 3.589844 -1.433594 L 4.144531 -0.855469 C 4.898438 -1.945312 5.332031 -3.398438 5.421875 -5.199219 Z M 1.421875 -8.921875 L 0.878906 -8.398438 C 1.65625 -7.753906 2.265625 -7.144531 2.710938 -6.589844 L 3.289062 -7.15625 C 2.777344 -7.742188 2.15625 -8.332031 1.421875 -8.921875 Z M 7.878906 0.921875 L 10.445312 0.921875 L 10.644531 0.121094 C 10.355469 0.144531 9.933594 0.15625 9.386719 0.167969 C 8.832031 0.167969 8.300781 0.179688 7.765625 0.179688 C 6.910156 0.179688 6.1875 0.167969 5.609375 0.15625 C 4.964844 0.132812 4.464844 0.0546875 4.132812 -0.101562 C 3.820312 -0.253906 3.542969 -0.488281 3.277344 -0.800781 C 3.1875 -0.898438 3.101562 -0.988281 3.011719 -1.054688 L 3.011719 -5.222656 L 0.675781 -5.222656 L 0.675781 -4.488281 L 2.265625 -4.488281 L 2.265625 -1.109375 C 1.8125 -0.910156 1.289062 -0.34375 0.699219 0.589844 L 1.300781 1.132812 C 1.910156 0.109375 2.34375 -0.398438 2.609375 -0.398438 C 2.746094 -0.398438 2.890625 -0.3125 3.03125 -0.121094 C 3.378906 0.289062 3.765625 0.566406 4.199219 0.699219 C 4.644531 0.8125 5.210938 0.878906 5.921875 0.898438 C 6.621094 0.910156 7.277344 0.921875 7.878906 0.921875 Z "/>
</g>
<g id="glyph-0-7">
<path d="M 3.886719 -0.476562 C 4.898438 -0.8125 5.855469 -1.210938 6.742188 -1.675781 L 6.542969 -2.378906 C 6.011719 -2.078125 5.476562 -1.820312 4.945312 -1.609375 L 4.945312 -8.800781 L 4.15625 -8.800781 L 4.15625 -1.710938 C 4.15625 -1.5 3.976562 -1.332031 3.644531 -1.210938 Z M 1.890625 -5.210938 L 1.890625 1.054688 L 2.667969 1.054688 L 2.667969 -6.476562 C 3.054688 -7.1875 3.378906 -7.953125 3.644531 -8.777344 L 2.898438 -9.132812 C 2.367188 -7.378906 1.511719 -5.820312 0.34375 -4.464844 L 0.609375 -3.621094 C 1.078125 -4.132812 1.5 -4.65625 1.890625 -5.210938 Z M 8.722656 -9.03125 C 8.722656 -6.855469 8.542969 -5.054688 8.1875 -3.65625 C 7.742188 -1.988281 6.820312 -0.601562 5.421875 0.5 L 5.933594 1.132812 C 6.957031 0.332031 7.742188 -0.621094 8.289062 -1.710938 C 9.023438 -0.734375 9.632812 0.167969 10.097656 0.988281 L 10.734375 0.554688 C 10.234375 -0.300781 9.523438 -1.300781 8.597656 -2.433594 C 8.742188 -2.8125 8.867188 -3.210938 8.964844 -3.621094 C 9.308594 -5.101562 9.488281 -6.898438 9.488281 -9.03125 Z M 6.300781 -7.753906 L 5.65625 -7.542969 C 6.132812 -6.699219 6.566406 -5.734375 6.957031 -4.632812 L 7.609375 -4.933594 C 7.234375 -5.933594 6.800781 -6.878906 6.300781 -7.753906 Z "/>
</g>
<g id="glyph-0-8">
<path d="M 1.398438 -8.898438 L 0.855469 -8.378906 C 1.667969 -7.742188 2.300781 -7.15625 2.753906 -6.609375 L 3.332031 -7.175781 C 2.8125 -7.753906 2.167969 -8.320312 1.398438 -8.898438 Z M 7.855469 0.910156 L 10.421875 0.910156 L 10.609375 0.109375 C 10.320312 0.132812 9.898438 0.144531 9.355469 0.15625 C 8.808594 0.167969 8.277344 0.179688 7.742188 0.179688 C 6.886719 0.179688 6.175781 0.167969 5.601562 0.15625 C 4.957031 0.132812 4.457031 0.0429688 4.121094 -0.109375 C 3.8125 -0.253906 3.53125 -0.488281 3.265625 -0.8125 C 3.175781 -0.910156 3.101562 -0.988281 3.011719 -1.054688 L 3.011719 -5.222656 L 0.675781 -5.222656 L 0.675781 -4.488281 L 2.265625 -4.488281 L 2.265625 -1.109375 C 1.8125 -0.910156 1.289062 -0.34375 0.699219 0.589844 L 1.300781 1.132812 C 1.910156 0.109375 2.34375 -0.398438 2.609375 -0.398438 C 2.746094 -0.398438 2.890625 -0.3125 3.03125 -0.121094 C 3.378906 0.277344 3.765625 0.554688 4.1875 0.6875 C 4.632812 0.8125 5.210938 0.878906 5.910156 0.890625 C 6.609375 0.898438 7.253906 0.910156 7.855469 0.910156 Z M 3.832031 -8.476562 L 3.832031 -7.699219 L 6.921875 -7.699219 C 6.253906 -6.03125 5.078125 -4.609375 3.410156 -3.433594 L 3.910156 -2.777344 C 4.945312 -3.53125 5.8125 -4.398438 6.5 -5.355469 L 6.5 -0.445312 L 7.300781 -0.445312 L 7.300781 -6.710938 C 7.453125 -7.03125 7.589844 -7.367188 7.722656 -7.699219 L 10.242188 -7.699219 L 10.242188 -8.476562 Z M 8.234375 -6.398438 L 7.621094 -5.957031 C 8.566406 -4.84375 9.34375 -3.789062 9.945312 -2.789062 L 10.621094 -3.253906 C 10.066406 -4.15625 9.265625 -5.199219 8.234375 -6.398438 Z "/>
</g>
<g id="glyph-0-9">
<path d="M 3.367188 -6.800781 L 3.367188 -2.554688 L 6.175781 -2.554688 L 6.175781 0.0117188 C 6.175781 0.234375 6.042969 0.34375 5.800781 0.34375 C 5.476562 0.34375 5.144531 0.320312 4.789062 0.289062 L 4.957031 1.078125 L 6.078125 1.078125 C 6.675781 1.078125 6.976562 0.777344 6.976562 0.199219 L 6.976562 -2.554688 L 9.554688 -2.554688 L 9.554688 -6.800781 L 6.464844 -6.800781 C 6.578125 -7.132812 6.667969 -7.476562 6.734375 -7.832031 L 10.367188 -7.832031 L 10.367188 -8.621094 L 1.320312 -8.621094 L 1.320312 -4.277344 C 1.300781 -2.222656 1.011719 -0.609375 0.457031 0.554688 L 1.054688 1.089844 C 1.734375 -0.253906 2.089844 -2.042969 2.132812 -4.277344 L 2.132812 -7.832031 L 5.933594 -7.832031 C 5.878906 -7.476562 5.800781 -7.132812 5.6875 -6.800781 Z M 8.777344 -3.277344 L 4.144531 -3.277344 L 4.144531 -4.34375 L 8.777344 -4.34375 Z M 4.144531 -5.03125 L 4.144531 -6.066406 L 8.777344 -6.066406 L 8.777344 -5.03125 Z M 4.167969 -2.03125 C 3.675781 -1.132812 3.101562 -0.355469 2.421875 0.289062 L 3.089844 0.753906 C 3.765625 0.0664062 4.355469 -0.746094 4.867188 -1.699219 Z M 8.675781 -2.042969 L 8.03125 -1.644531 C 8.765625 -0.753906 9.355469 0.0664062 9.777344 0.800781 L 10.445312 0.34375 C 10.03125 -0.332031 9.445312 -1.132812 8.675781 -2.042969 Z "/>
</g>
<g id="glyph-0-10">
<path d="M 2.34375 -1.355469 C 3.410156 -2.03125 4.410156 -2.820312 5.355469 -3.722656 L 5.355469 -2 C 5.355469 -1.644531 5.199219 -1.464844 4.898438 -1.464844 C 4.566406 -1.464844 4.253906 -1.476562 3.976562 -1.488281 L 4.175781 -0.746094 L 5.1875 -0.746094 C 5.789062 -0.746094 6.097656 -1.078125 6.097656 -1.722656 L 6.097656 -3.589844 C 6.777344 -3.066406 7.597656 -2.34375 8.566406 -1.410156 L 9.03125 -2.109375 C 8.03125 -2.964844 7.054688 -3.722656 6.097656 -4.386719 L 6.097656 -6.089844 C 7.1875 -6.6875 8.175781 -7.289062 9.066406 -7.898438 L 9.066406 -8.65625 L 2.1875 -8.65625 L 2.1875 -7.898438 L 7.867188 -7.898438 C 7.3125 -7.542969 6.476562 -7.089844 5.355469 -6.53125 L 5.355469 -4.632812 C 4.3125 -3.632812 3.222656 -2.800781 2.066406 -2.132812 Z M 9.253906 -6.632812 L 9.253906 -0.222656 L 1.855469 -0.222656 L 1.855469 -6.644531 L 1.089844 -6.644531 L 1.089844 0.511719 L 9.253906 0.511719 L 9.253906 1.132812 L 10.023438 1.132812 L 10.023438 -6.632812 Z M 3.054688 -6.289062 L 2.464844 -5.921875 C 3.109375 -5.3125 3.632812 -4.753906 4.011719 -4.246094 L 4.621094 -4.667969 C 4.253906 -5.132812 3.734375 -5.667969 3.054688 -6.289062 Z M 8.109375 -6.367188 C 7.6875 -5.6875 7.175781 -5.101562 6.597656 -4.609375 L 7.175781 -4.199219 C 7.777344 -4.722656 8.308594 -5.34375 8.753906 -6.054688 Z "/>
</g>
<g id="glyph-0-11">
<path d="M 7.3125 -6.609375 L 8.953125 -6.609375 C 8.910156 -5.109375 8.675781 -3.800781 8.242188 -2.675781 C 7.800781 -3.609375 7.445312 -4.734375 7.167969 -6.03125 Z M 7.878906 -1.878906 C 7.367188 -0.933594 6.6875 -0.167969 5.820312 0.433594 L 6.234375 1.101562 C 7.066406 0.5 7.753906 -0.246094 8.289062 -1.132812 C 8.84375 -0.199219 9.511719 0.554688 10.289062 1.109375 L 10.722656 0.457031 C 9.921875 -0.0898438 9.242188 -0.855469 8.667969 -1.855469 C 9.289062 -3.167969 9.632812 -4.753906 9.6875 -6.609375 L 10.410156 -6.609375 L 10.410156 -7.378906 L 7.476562 -7.378906 C 7.566406 -7.867188 7.65625 -8.398438 7.722656 -8.964844 L 6.945312 -9.097656 C 6.722656 -6.988281 6.277344 -5.3125 5.621094 -4.066406 L 6.121094 -3.457031 C 6.355469 -3.855469 6.578125 -4.3125 6.777344 -4.820312 C 7.078125 -3.710938 7.445312 -2.734375 7.878906 -1.878906 Z M 2.609375 -3.910156 C 2.53125 -3.6875 2.445312 -3.457031 2.34375 -3.210938 L 0.722656 -3.210938 L 0.722656 -2.511719 L 2.03125 -2.511719 C 1.8125 -2.066406 1.554688 -1.609375 1.265625 -1.121094 C 1.8125 -0.921875 2.320312 -0.710938 2.8125 -0.5 C 2.167969 -0.132812 1.378906 0.167969 0.464844 0.410156 L 0.84375 1.078125 C 1.957031 0.765625 2.878906 0.355469 3.609375 -0.15625 C 4.265625 0.132812 4.832031 0.433594 5.320312 0.722656 L 5.753906 0.101562 C 5.265625 -0.167969 4.753906 -0.410156 4.222656 -0.65625 C 4.800781 -1.1875 5.210938 -1.820312 5.457031 -2.554688 L 5.457031 -3.210938 L 3.132812 -3.210938 C 3.199219 -3.410156 3.277344 -3.609375 3.355469 -3.820312 Z M 3.488281 -0.964844 C 3.089844 -1.132812 2.667969 -1.289062 2.222656 -1.445312 C 2.445312 -1.777344 2.644531 -2.132812 2.820312 -2.511719 L 4.734375 -2.511719 C 4.464844 -1.933594 4.042969 -1.410156 3.488281 -0.964844 Z M 1.601562 -8.867188 L 0.964844 -8.65625 C 1.234375 -8.234375 1.476562 -7.753906 1.710938 -7.210938 L 2.289062 -7.476562 C 2.089844 -7.964844 1.867188 -8.433594 1.601562 -8.867188 Z M 4.976562 -8.898438 C 4.777344 -8.433594 4.488281 -7.964844 4.132812 -7.488281 L 4.699219 -7.199219 C 5.054688 -7.667969 5.332031 -8.144531 5.554688 -8.632812 Z M 0.746094 -6.945312 L 0.746094 -6.242188 L 2.320312 -6.242188 C 1.988281 -5.632812 1.390625 -5.078125 0.535156 -4.578125 L 0.921875 -3.933594 C 1.878906 -4.578125 2.542969 -5.332031 2.910156 -6.210938 L 2.910156 -4.101562 L 3.65625 -4.101562 L 3.65625 -5.542969 C 4.054688 -5.277344 4.53125 -4.921875 5.089844 -4.476562 L 5.5 -5.101562 C 4.878906 -5.476562 4.253906 -5.820312 3.65625 -6.121094 L 3.65625 -6.242188 L 5.675781 -6.242188 L 5.675781 -6.945312 L 3.65625 -6.945312 L 3.65625 -9.066406 L 2.910156 -9.066406 L 2.910156 -6.945312 Z "/>
</g>
<g id="glyph-0-12">
<path d="M 1 -7.3125 L 1 -5.378906 L 2.777344 -5.378906 C 1.988281 -4.789062 1.210938 -4.355469 0.433594 -4.089844 L 0.777344 -3.445312 C 1.464844 -3.789062 2.132812 -4.234375 2.789062 -4.789062 L 2.789062 -3.523438 L 3.5 -3.523438 L 3.5 -4.667969 C 3.921875 -4.445312 4.457031 -4.109375 5.078125 -3.675781 L 5.488281 -4.289062 C 4.820312 -4.632812 4.15625 -4.933594 3.5 -5.199219 L 3.5 -5.378906 L 5.289062 -5.378906 L 5.289062 -7.3125 L 3.5 -7.3125 L 3.5 -7.933594 L 5.566406 -7.933594 L 5.566406 -8.554688 L 3.5 -8.554688 L 3.5 -9.078125 L 2.789062 -9.078125 L 2.789062 -8.554688 L 0.601562 -8.554688 L 0.601562 -7.933594 L 2.789062 -7.933594 L 2.789062 -7.3125 Z M 4.644531 -5.921875 L 3.5 -5.921875 L 3.5 -6.753906 L 4.644531 -6.753906 Z M 2.789062 -5.921875 L 1.644531 -5.921875 L 1.644531 -6.753906 L 2.789062 -6.753906 Z M 7.03125 -7.476562 L 8.976562 -7.476562 C 8.84375 -6.644531 8.554688 -5.976562 8.121094 -5.476562 L 8.066406 -5.421875 C 7.554688 -5.867188 7.132812 -6.398438 6.8125 -7.042969 C 6.878906 -7.175781 6.957031 -7.320312 7.03125 -7.476562 Z M 7.511719 -4.976562 C 7.042969 -4.675781 6.445312 -4.421875 5.6875 -4.222656 L 5.964844 -3.566406 C 6.832031 -3.8125 7.542969 -4.132812 8.089844 -4.511719 C 8.667969 -4.089844 9.332031 -3.753906 10.109375 -3.511719 L 10.523438 -4.144531 C 9.808594 -4.355469 9.1875 -4.644531 8.644531 -5 L 8.6875 -5.042969 C 9.199219 -5.667969 9.53125 -6.476562 9.6875 -7.476562 L 10.332031 -7.476562 L 10.332031 -8.167969 L 7.300781 -8.167969 C 7.386719 -8.445312 7.476562 -8.734375 7.542969 -9.042969 L 6.832031 -9.132812 C 6.589844 -8.042969 6.121094 -7.109375 5.433594 -6.355469 L 5.898438 -5.765625 C 6.066406 -5.957031 6.234375 -6.15625 6.386719 -6.367188 C 6.6875 -5.855469 7.066406 -5.386719 7.511719 -4.976562 Z M 5.078125 -2.445312 L 5.078125 0.15625 L 3.132812 0.15625 L 3.132812 -1.933594 L 2.398438 -1.933594 L 2.398438 0.15625 L 0.621094 0.15625 L 0.621094 0.867188 L 10.488281 0.867188 L 10.488281 0.15625 L 5.878906 0.15625 L 5.878906 -0.8125 L 9.277344 -0.8125 L 9.277344 -1.5 L 5.878906 -1.5 L 5.878906 -2.445312 L 9.953125 -2.445312 L 9.953125 -3.144531 L 1.175781 -3.144531 L 1.175781 -2.445312 Z "/>
</g>
<g id="glyph-0-13">
<path d="M 1.789062 -4.878906 L 1.789062 1.121094 L 2.578125 1.121094 L 2.578125 -6.167969 C 3.011719 -6.988281 3.367188 -7.867188 3.65625 -8.789062 L 2.933594 -9.121094 C 2.421875 -7.289062 1.589844 -5.667969 0.433594 -4.246094 L 0.667969 -3.445312 C 1.066406 -3.898438 1.445312 -4.378906 1.789062 -4.878906 Z M 3.464844 -7.175781 L 3.464844 -6.398438 L 5.632812 -6.398438 C 5.101562 -4.355469 4.222656 -2.6875 2.976562 -1.398438 L 3.386719 -0.710938 C 4.753906 -2.1875 5.722656 -4.089844 6.277344 -6.398438 L 6.410156 -6.398438 L 6.410156 -1.945312 L 4.710938 -1.945312 L 4.710938 -1.175781 L 6.410156 -1.175781 L 6.410156 1.109375 L 7.199219 1.109375 L 7.199219 -1.175781 L 8.921875 -1.175781 L 8.921875 -1.945312 L 7.199219 -1.945312 L 7.199219 -6.398438 L 7.332031 -6.398438 C 7.84375 -4.34375 8.789062 -2.488281 10.144531 -0.84375 L 10.664062 -1.5 C 9.378906 -2.933594 8.476562 -4.566406 7.964844 -6.398438 L 10.234375 -6.398438 L 10.234375 -7.175781 L 7.199219 -7.175781 L 7.199219 -9.089844 L 6.410156 -9.089844 L 6.410156 -7.175781 Z "/>
</g>
<g id="glyph-0-14">
<path d="M 2.777344 -1.578125 C 2.378906 -1.578125 2.03125 -1.445312 1.753906 -1.175781 C 1.464844 -0.910156 1.332031 -0.578125 1.332031 -0.179688 C 1.332031 0.222656 1.464844 0.554688 1.753906 0.820312 C 2.03125 1.078125 2.378906 1.210938 2.777344 1.210938 C 3.175781 1.210938 3.511719 1.078125 3.800781 0.8125 C 4.078125 0.542969 4.222656 0.210938 4.222656 -0.179688 C 4.222656 -0.578125 4.078125 -0.910156 3.800781 -1.175781 C 3.511719 -1.445312 3.175781 -1.578125 2.777344 -1.578125 Z M 2.777344 -1 C 3 -1 3.199219 -0.921875 3.367188 -0.753906 C 3.53125 -0.601562 3.621094 -0.410156 3.621094 -0.179688 C 3.621094 0.0429688 3.53125 0.234375 3.367188 0.390625 C 3.199219 0.542969 3 0.632812 2.777344 0.632812 C 2.542969 0.632812 2.34375 0.542969 2.1875 0.390625 C 2.011719 0.234375 1.933594 0.0429688 1.933594 -0.179688 C 1.933594 -0.410156 2.011719 -0.601562 2.1875 -0.753906 C 2.34375 -0.921875 2.542969 -1 2.777344 -1 Z "/>
</g>
</g>
</defs>
<g fill="rgb(100%, 100%, 100%)" fill-opacity="1">
<use xlink:href="#glyph-0-0" x="30" y="31.777344"/>
<use xlink:href="#glyph-0-1" x="41" y="31.777344"/>
<use xlink:href="#glyph-0-2" x="52" y="31.777344"/>
<use xlink:href="#glyph-0-3" x="63" y="31.777344"/>
<use xlink:href="#glyph-0-4" x="74" y="31.777344"/>
<use xlink:href="#glyph-0-5" x="85" y="31.777344"/>
<use xlink:href="#glyph-0-6" x="96" y="31.777344"/>
<use xlink:href="#glyph-0-7" x="107" y="31.777344"/>
<use xlink:href="#glyph-0-8" x="118" y="31.777344"/>
<use xlink:href="#glyph-0-9" x="129" y="31.777344"/>
<use xlink:href="#glyph-0-10" x="140" y="31.777344"/>
<use xlink:href="#glyph-0-11" x="151" y="31.777344"/>
<use xlink:href="#glyph-0-12" x="162" y="31.777344"/>
<use xlink:href="#glyph-0-13" x="173" y="31.777344"/>
<use xlink:href="#glyph-0-14" x="184" y="31.777344"/>
</g>
</svg>
